<?xml version="1.0" encoding="iso-8859-1"?>
<!-- Generator: Adobe Illustrator 16.0.0, SVG Export Plug-In . SVG Version: 6.00 Build 0)  -->
<!DOCTYPE svg PUBLIC "-//W3C//DTD SVG 1.1//EN" "http://www.w3.org/Graphics/SVG/1.1/DTD/svg11.dtd">
<svg version="1.1" id="Layer_1" xmlns="http://www.w3.org/2000/svg" xmlns:xlink="http://www.w3.org/1999/xlink" x="0px" y="0px"
	 width="200px" height="200px" viewBox="0 0 200 200" style="enable-background:new 0 0 200 200;" xml:space="preserve">
<g id="Logo">
	<g id="_x32_px_Stroke" style="display:none;">
		<path style="display:inline;fill:#A9A9A9;" d="M198,2v196H2V2H198 M200,0H0v200h200V0L200,0z"/>
	</g>
	<g>
		<path style="fill:#FF7977;" d="M156.633,104.602c-0.039-3.504-0.859-6.964-2.137-10.214c-0.986-2.516-2.131-4.966-3.249-7.425
			c-8.896-19.391-18.235-38.573-28.003-57.54c-1.374-2.65-2.719-5.316-4.17-7.925c-1.426-2.545-3.086-4.995-5.235-6.987
			c-3.429-3.269-8.03-5.218-12.752-5.512h-2.174c-4.861,0.24-9.606,2.28-13.094,5.68c-2.07,1.961-3.672,4.352-5.06,6.826
			c-1.432,2.566-2.758,5.19-4.106,7.798c-6.557,12.724-12.916,25.549-19.084,38.464c-3.676,7.73-7.321,15.473-10.827,23.279
			c-1.454,3.252-2.769,6.615-3.264,10.165c-0.917,5.994,0.398,12.285,3.6,17.432c2.76,4.471,6.903,8.074,11.732,10.155
			c3.754,1.623,7.9,2.362,11.983,2.121c5.483-0.291,10.77-2.261,15.409-5.136c5.175-3.176,9.601-7.4,13.722-11.822
			c3.832,4.13,7.933,8.071,12.667,11.16c4.572,3.008,9.785,5.186,15.268,5.704c5.955,0.622,12.125-0.854,17.123-4.169
			c4.397-2.896,7.867-7.168,9.814-12.059C156.061,111.43,156.693,108.01,156.633,104.602z M99.949,102.29
			c-1.495-1.76-2.812-3.664-4.135-5.554c-2.226-3.265-4.25-6.678-5.878-10.284c-1.334-2.992-2.405-6.133-2.823-9.395
			c-0.305-2.588-0.232-5.288,0.718-7.745c0.85-2.304,2.484-4.3,4.554-5.619c4.932-3.183,11.962-2.839,16.431,1.022
			c2.262,1.927,3.613,4.776,3.953,7.704c0.445,3.892-0.44,7.801-1.799,11.431C108.404,90.586,104.342,96.624,99.949,102.29z
			 M148.342,110.545c-1.318,4.549-4.486,8.523-8.631,10.816c-3.674,2.055-8.059,2.759-12.201,2.067
			c-5.275-0.821-10.008-3.62-14.109-6.924c-3.014-2.422-5.728-5.19-8.328-8.043c4.105-5.192,7.972-10.624,10.926-16.562
			c2.578-5.2,4.537-10.834,4.723-16.681c0.105-3.71-0.593-7.488-2.326-10.791c-2.269-4.413-6.334-7.803-10.994-9.443
			c-4.353-1.555-9.192-1.694-13.633-0.428c-4.188,1.185-8.013,3.702-10.634,7.191c-2.307,3.042-3.622,6.782-3.927,10.575
			c-0.469,5.463,0.9,10.913,2.971,15.935c3.079,7.338,7.598,13.98,12.589,20.141c-2.244,2.603-4.699,5.022-7.306,7.26
			c-4.052,3.429-8.688,6.414-13.94,7.55c-4.246,0.953-8.827,0.479-12.721-1.491c-4.561-2.273-8.063-6.554-9.384-11.475
			c-1.01-3.615-0.786-7.518,0.415-11.059c0.999-2.93,2.354-5.722,3.622-8.541c8.797-19.182,18.039-38.16,27.689-56.927
			c1.44-2.793,2.858-5.599,4.382-8.346c1.244-2.213,2.691-4.386,4.736-5.94c2.187-1.711,4.971-2.646,7.749-2.583
			c2.88-0.034,5.743,1.027,7.946,2.878c2.176,1.807,3.646,4.279,4.966,6.743c2.984,5.605,5.85,11.275,8.717,16.939
			c8.18,16.196,16.047,32.548,23.582,49.054c1.139,2.564,2.358,5.108,3.125,7.814C149.283,103.611,149.314,107.215,148.342,110.545z
			"/>
		<path style="fill:#FF7977;" d="M57.249,146.038c2.464-0.558,5.156,1.067,5.796,3.513c0.795,2.503-0.785,5.413-3.301,6.137
			c-2.458,0.864-5.377-0.638-6.191-3.092c-0.772-2.068,0.054-4.564,1.888-5.787C55.982,146.432,56.608,146.18,57.249,146.038
			L57.249,146.038z"/>
		<path style="fill:#FF7977;" d="M73.891,162.195c1.484-1.613,3.575-2.624,5.729-2.946c1.432-0.14,2.892-0.049,4.295,0.272
			c-0.018,2.271-0.004,4.539-0.008,6.811c-2.209-0.571-4.601-0.689-6.769,0.109c-1.171,0.427-2.247,1.129-3.1,2.037
			c-0.186,0.159-0.141,0.416-0.158,0.637c0.013,6.345-0.01,12.691,0.009,19.035c-0.022,0.244,0.037,0.519-0.071,0.748
			c-2.45,0.057-4.903,0.011-7.354,0.02c0.001-9.673-0.008-19.348,0.006-29.021c2.064,0.009,4.129-0.008,6.194,0.004
			c0.454-0.026,0.938,0.207,1.104,0.65C73.931,161.081,73.879,161.646,73.891,162.195L73.891,162.195z"/>
		<path style="fill:#FF7977;" d="M126.719,162.221c1.961-2.029,4.803-3.027,7.592-3.033c2.947-0.074,5.967,0.797,8.244,2.709
			c1.506,1.178,2.614,2.84,3.115,4.687c0.648,2.261,0.59,4.636,0.582,6.965c0.002,5.124,0,10.249,0.002,15.374
			c-2.471-0.004-4.941,0.016-7.412-0.011c0.002-5.121,0-10.242,0.002-15.365c0-1.903,0.09-3.956-0.922-5.651
			c-0.705-1.216-2.1-1.822-3.445-1.963c-2.562-0.41-5.238,0.609-7.004,2.477c-0.188,0.188-0.349,0.426-0.328,0.71
			c-0.024,0.792,0.096,1.587,0.028,2.38c-0.097,1.077,0.054,2.154,0.019,3.234c-0.037,2.037-0.029,4.073-0.008,6.109
			c-0.14,2.693,0.104,5.395-0.057,8.085c-2.461-0.008-4.92-0.002-7.381-0.003c-0.001-9.678-0.018-19.354,0.009-29.031
			c1.903,0.015,3.81,0,5.712,0.006c0.492-0.031,1.03,0.244,1.157,0.744C126.74,161.158,126.705,161.693,126.719,162.221
			L126.719,162.221z"/>
		<path style="fill:#FF7977;" d="M54.539,188.924c-0.001-9.677-0.015-19.353,0.005-29.029c2.452,0.006,4.903,0.004,7.354,0.002
			c0.019,9.676,0.005,19.352,0.007,29.026C59.45,188.923,56.995,188.921,54.539,188.924L54.539,188.924z"/>
		<path style="fill:#FF7977;" d="M49.972,159.898c-1.943-0.004-3.886,0.006-5.831-0.011c-0.514-0.003-1.17,0.022-1.421,0.562
			c-0.225,0.555-0.139,1.171-0.159,1.755c-1.617-1.721-3.896-2.743-6.234-2.965c-3.61-0.324-7.351,0.677-10.25,2.869
			c-2.388,1.764-4.153,4.315-5.077,7.125c-0.445,1.317-0.668,2.699-0.81,4.08v1.987c0.207,4.159,2.057,8.273,5.284,10.954
			c2.434,2.062,5.562,3.214,8.731,3.415h1.652c2.512-0.169,4.992-1.208,6.706-3.08c0.016,0.587-0.067,1.209,0.153,1.771
			c0.229,0.455,0.769,0.58,1.238,0.562c2.005-0.005,4.013,0.002,6.02-0.009C49.974,179.244,49.98,169.571,49.972,159.898z
			 M42.334,179.881c-1.5,1.796-3.843,2.858-6.183,2.784c-2.508,0.019-5.111-0.942-6.736-2.909c-1.585-1.878-2.064-4.49-1.704-6.877
			c0.269-1.932,1.254-3.785,2.81-4.984c1.411-1.114,3.19-1.688,4.971-1.812c2.653-0.232,5.45,0.938,7.046,3.08
			c0.09,3.154,0.002,6.316,0.042,9.475C42.554,179.054,42.669,179.555,42.334,179.881z"/>
		<path style="fill:#FF7977;" d="M115.51,168.201c-1.142-2.793-3.168-5.221-5.736-6.805c-2.645-1.646-5.817-2.39-8.918-2.179
			c-2.449,0.161-4.842,1.206-6.542,2.992c-0.01-5.421,0-10.839-0.005-16.26c-2.472,0.001-4.946-0.011-7.418,0.007
			c0.013,14.318-0.021,28.643,0.018,42.96c2.047,0.005,4.096,0.01,6.144,0.005c0.509,0.04,1.058-0.24,1.198-0.755
			c0.101-0.524,0.064-1.065,0.067-1.596c1.718,1.911,4.242,2.948,6.78,3.101h1.514c4.109-0.206,8.138-2.132,10.717-5.361
			C116.941,179.881,117.646,173.443,115.51,168.201z M106.865,180.415c-1.656,1.537-3.948,2.274-6.186,2.252
			c-2.335,0.054-4.668-1.019-6.147-2.826c-0.183-0.188-0.243-0.442-0.228-0.692c0.002-3.322,0.005-6.643,0-9.963
			c1.42-1.852,3.693-3.006,6.018-3.125c2.357-0.069,4.83,0.623,6.56,2.285c1.648,1.529,2.452,3.822,2.4,6.043
			C109.33,176.607,108.504,178.885,106.865,180.415z"/>
		<path style="fill:#FF7977;" d="M176.503,164.609c-3.144-4.004-8.519-6.024-13.53-5.275c-2.093,0.33-4.076,1.334-5.539,2.874
			c-0.016-5.418,0-10.836-0.008-16.256c-2.468-0.003-4.934-0.005-7.4,0.002c-0.002,14.319,0,28.642,0,42.963
			c1.945,0.015,3.895-0.003,5.84,0.015c0.511,0.008,1.15-0.033,1.412-0.555c0.227-0.564,0.142-1.193,0.158-1.786
			c1.705,1.868,4.174,2.9,6.672,3.082h1.666c4.064-0.221,8.037-2.118,10.611-5.298c2.102-2.536,3.236-5.784,3.424-9.055v-1.941
			C179.576,170.221,178.51,167.085,176.503,164.609z M170.727,179.581c-1.957,2.519-5.41,3.456-8.473,2.967
			c-1.865-0.372-3.674-1.379-4.777-2.951c-0.123-1.219-0.012-2.452-0.049-3.677c0.026-2.253-0.056-4.513,0.037-6.762
			c1.122-1.547,2.918-2.539,4.766-2.949c3.42-0.632,7.396,0.723,9.125,3.881C172.93,173.013,172.773,176.919,170.727,179.581z"/>
	</g>
</g>
<g id="Guides">
</g>
</svg>
