<?xml version="1.0" encoding="utf-8"?>
<!-- Generator: Adobe Illustrator 19.2.1, SVG Export Plug-In . SVG Version: 6.00 Build 0)  -->
<svg version="1.1" id="Layer_1" xmlns="http://www.w3.org/2000/svg" xmlns:xlink="http://www.w3.org/1999/xlink" x="0px" y="0px"
	 viewBox="0 0 252.1 261.4" style="enable-background:new 0 0 252.1 261.4;" xml:space="preserve">

<path class="st1" d="M2.6,0c0,0,0.1,0,0.2,0C2.8,0.2,3,0.5,3.3,0.5c0,0,0-0.1,0-0.1c0.1-0.1,0.2-0.2,0.3-0.3c0,0,0.1,0,0.1,0
	c0,0,0,0.1,0,0.1C24,38.6,44.3,77,64.6,115.5c7.5,14.2,15,28.5,22.5,42.7c0,0,0.1,0,0.1,0c0-38,0-76,0-114c0-11.4,0-22.7,0-34.1
	c0-2.5,0-5,0-7.5c0-0.7-0.2-1.8,0.1-2.3C87.5,0,88.2,0,88.5,0c12.5,0,25,0,37.6,0c11.3,0,22.6,0,33.9,0c8.2,0,16.5-0.2,24.1,0.9
	c18.9,2.7,35.4,11.8,48.2,26.3c15.4,17.4,23.7,43.4,18.1,68.6c-5.3,24.3-21.1,45.4-44,55.9c-10.1,4.7-21.2,7.6-33.6,7.6
	c0-52.8,0-105.6,0-158.4c0,0,0,0-0.1,0c0,0,0,0.1,0,0.1c-20.7,39.1-41.3,78.1-62,117.2c-5.7,10.8-11.4,21.6-17.1,32.4
	c-1.4,2.6-2.8,5.2-4.1,7.8c-0.3,0.5-0.6,1.6-1.2,2c-0.5,0.3-3.9,0.1-4.8,0.1c-6,0-11.9,0-17.9,0c-21,0-42,0-63,0
	C2.6,107.1,2.6,53.5,2.6,0L2.6,0z"/>
<path class="st1" d="M75.3,223.3c-0.2-1.3-0.4-1.8-2.7-2.2c-3.4-0.5-4.2-0.7-6.5-0.7c-12.9,0-18.9,8.9-18.9,15.8
	c0,6.3,5.5,15.9,18.1,15.9c5,0,8.3-1.5,9.1-2c1-0.6,1.1-1,1.2-1.7l0.4-4.2c0-0.3,0-0.8-0.7-0.8c-0.5,0-0.9,0.7-1,0.9
	c-2.1,3.8-4.3,6.6-8.8,6.6c-7.5,0-11.6-7.9-11.6-14.9c0-6.4,3.8-14.3,11.9-14.3c4.6,0,6.4,2.3,8.2,5c0.5,0.8,0.8,0.9,1.2,0.9
	c0.6,0,0.6-0.3,0.6-0.8L75.3,223.3L75.3,223.3z"/>
<path class="st1" d="M103.3,240c0-7.5-6.3-11.2-12-11.2c-7.4,0-12.1,6-12.1,11.7c0,5.6,4.6,11.7,12.3,11.7
	C98.5,252.2,103.3,246.6,103.3,240L103.3,240z M84.5,239.6c0-6.1,2.9-9.6,6.5-9.6c5.4,0,7.2,7.1,7.2,10.6c0,5.9-3.1,10.5-6.7,10.5
	C87.5,251,84.5,245.7,84.5,239.6L84.5,239.6z"/>
<path class="st1" d="M109.3,246.8c0,2.7,0,3.3-2.1,3.6c-1.1,0.1-1.5,0.3-1.5,0.8c0,0.6,0.5,0.6,1.1,0.6c1,0,1.6-0.2,4.9-0.2
	c2.9,0,3.9,0.2,5.2,0.2c0.3,0,0.8,0,0.8-0.6c0-0.4-0.2-0.7-1.5-0.8c-2.1-0.3-2.1-0.8-2.1-3.6v-22.6c0-0.5,0.2-3.6,0.2-4.3
	c0-0.5,0-1-0.5-1c-0.2,0-0.3,0-1.5,0.6c-0.9,0.4-3,1.2-4.3,1.5c-1.4,0.3-1.6,0.4-1.6,0.8c0,0.5,0.2,0.5,1.1,0.6
	c1.8,0.1,1.8,1.8,1.8,3.3V246.8L109.3,246.8z"/>
<path class="st1" d="M122.2,246.8c0,2.7,0,3.3-2.1,3.6c-1.1,0.1-1.5,0.3-1.5,0.8c0,0.6,0.5,0.6,1.1,0.6c1,0,1.6-0.2,4.9-0.2
	c2.9,0,3.9,0.2,5.2,0.2c0.3,0,0.8,0,0.8-0.6c0-0.4-0.2-0.7-1.5-0.8c-2.1-0.3-2.1-0.8-2.1-3.6v-22.6c0-0.5,0.2-3.6,0.2-4.3
	c0-0.5,0-1-0.5-1c-0.2,0-0.3,0-1.5,0.6c-0.9,0.4-3,1.2-4.3,1.5c-1.4,0.3-1.6,0.4-1.6,0.8c0,0.5,0.2,0.5,1.1,0.6
	c1.8,0.1,1.8,1.8,1.8,3.3V246.8L122.2,246.8z"/>
<path class="st1" d="M152.7,236.9c0.8,0,1.3,0,1.3-0.9c0-1.7-1.6-7.2-9.1-7.2c-6.7,0-12.3,4.8-12.3,12.1c0,6.9,5,11.2,11.5,11.2
	c6.3,0,9.8-4.4,9.8-5.1c0-0.1-0.1-0.4-0.4-0.4c-0.3,0-0.3,0-1.1,0.8c-1.2,1.1-3.2,2-5.5,2c-5.1,0-8.8-4.3-8.8-9.8
	c0-2.6,0.4-2.6,1.3-2.6H152.7L152.7,236.9z M140.1,235.4c-1.1,0-1.3,0-1.3-0.5c0-0.8,1.5-4.9,6-4.9c0.7,0,4.1,0.1,4.1,3
	c0,1.3-1.2,2.4-3.4,2.4H140.1L140.1,235.4z"/>
<path class="st1" d="M174.9,230.6c-0.8,0-0.8,0-2.1-0.5c-1.9-0.8-3.3-1.2-5.3-1.2c-6.1,0-9.8,3.9-9.8,7.9c0,3.9,3.1,5.5,5.1,6.5
	c0.1,0,0.3,0.2,0.3,0.3c0,0.2-0.1,0.2-0.7,0.4l-3.4,1.2c-0.6,0.2-1.1,0.6-1.1,1.4c0,1.1,2.3,3,2.8,3.3c1.1,0.8,1.1,0.9,1.1,1
	c0,0.2-1,0.7-1.3,0.9c-1.9,0.9-4,2.1-4,4.6c0,4.1,5.9,5.1,9.3,5.1c8.1,0,14.2-4.3,14.2-9c0-2.4-2.1-5.3-8.4-5.3h-6.1
	c-0.3,0-2.3,0-2.3-1.5c0-1.7,3.2-1.8,4.6-1.8c6.9-0.2,9.5-4.7,9.5-7.3c0-1.2-0.4-2.4-0.8-3.2c0,0-0.1-0.2-0.1-0.4
	c0-0.3,0.3-0.3,0.9-0.3h1.8c0.7,0,0.8,0,0.8-0.6c0-0.1,0-1.3-0.9-1.3H174.9L174.9,230.6z M171.9,236.2c0,6.6-3.8,6.6-4.3,6.6
	c-2.2,0-4.7-2-4.7-6.4c0-4.2,2.2-6.4,4.6-6.4C171.1,229.9,171.9,234.3,171.9,236.2L171.9,236.2z M169.2,251.5c1.3,0,6.6,0,6.6,3.4
	c0,4.1-5.3,5.1-7.9,5.1c-4,0-6.8-2.1-6.8-4.9c0-2.4,2-3.8,2.7-3.8c0.4,0,2.4,0.2,2.8,0.2L169.2,251.5L169.2,251.5z"/>
<path class="st1" d="M201.3,236.9c0.8,0,1.3,0,1.3-0.9c0-1.7-1.6-7.2-9.1-7.2c-6.7,0-12.3,4.8-12.3,12.1c0,6.9,5,11.2,11.5,11.2
	c6.3,0,9.8-4.4,9.8-5.1c0-0.1-0.1-0.4-0.4-0.4c-0.3,0-0.3,0-1.1,0.8c-1.2,1.1-3.2,2-5.5,2c-5.1,0-8.8-4.3-8.8-9.8
	c0-2.6,0.4-2.6,1.3-2.6H201.3L201.3,236.9z M188.8,235.4c-1.1,0-1.3,0-1.3-0.5c0-0.8,1.5-4.9,6-4.9c0.7,0,4.1,0.1,4.1,3
	c0,1.3-1.2,2.4-3.4,2.4H188.8L188.8,235.4z"/>
<path class="st1" d="M28.8,178.2L28.8,178.2l0.5,21.4c0,2.3,0,3.6-2.3,3.8c-1.5,0.1-1.9,0.2-1.9,0.8c0,0.6,0.5,0.6,0.9,0.6
	c1,0,3.7-0.2,6.2-0.2c1.8,0,4.5,0.2,5.2,0.2c0.5,0,1.3,0,1.3-0.7c0-0.5-0.5-0.7-1.5-0.7c-2.2,0-2.3-0.7-2.3-3.8L34,178.6
	c-0.1-2.6,0-3.3,2.3-3.4c1.4-0.1,1.8-0.1,1.8-0.7c0-0.6-0.7-0.6-1.2-0.6c-0.5,0-1.9,0.2-3,0.2c-1.1,0-3-0.2-4.1-0.2
	c-0.8,0-1.3,0.1-2,1.7L20,195.6l-8.4-20.7c-0.5-1.2-0.9-1.2-1.4-1.2c-0.6,0-1.6,0.2-3.4,0.2c-1.3,0-4.1-0.2-4.6-0.2
	c-0.7,0-1.1,0.2-1.1,0.6c0,0.5,0.3,0.8,2,0.9c2.2,0.1,2.3,0.1,2.3,2.5c0,6.5-1,21.2-1,21.5c-0.1,3.5-0.8,3.8-2.5,4
	c-1.4,0.2-1.9,0.3-1.9,0.9c0,0.5,0.5,0.6,0.8,0.6c0.8,0,2.7-0.2,4.5-0.2c2.1,0,3.8,0.2,4.5,0.2c0.5,0,1.4,0,1.4-0.7
	c0-0.7-0.8-0.7-1.9-0.7c-2.5,0-2.9-0.3-2.9-8.1c0-5.1,0.3-10.8,0.7-16.3h0.1l9.8,23.9c0.3,0.8,0.6,1.2,1.1,1.2
	c0.5,0,0.7-0.4,1.2-1.6L28.8,178.2L28.8,178.2z"/>
<path class="st1" d="M44.1,199.8c0,2.7,0,3.3-2.1,3.6c-1.1,0.1-1.5,0.3-1.5,0.8c0,0.6,0.5,0.6,0.8,0.6c0.8,0,3.1-0.2,5.2-0.2
	c2.3,0,4.4,0.2,5.2,0.2c0.3,0,0.8,0,0.8-0.6c0-0.4-0.2-0.7-1.5-0.8c-2.1-0.3-2.1-0.9-2.1-3.6v-16c0-1.1,0-1.7-0.5-1.7
	c-0.4,0-1.9,1.3-2.3,1.6c-0.8,0.6-2,1.2-4.4,2c-0.6,0.2-0.8,0.4-0.8,0.8c0,0.6,0.8,0.6,0.9,0.6c1.8,0.1,2.2,0.8,2.2,3.3V199.8
	L44.1,199.8z M49.2,176.4c0-1.5-1.2-2.8-2.7-2.8c-1.6,0-2.8,1.3-2.8,2.7c0,1.4,1.2,2.7,2.8,2.7C48.1,179,49.2,177.7,49.2,176.4
	L49.2,176.4z"/>
<path class="st1" d="M66,190.4c0,0.9,0,1.3-1.2,1.8c-7.6,3-10.3,5.2-10.3,8.8c0,0.7,0.2,4.2,3.9,4.2c2.2,0,4.9-1.8,7-3.5
	c0,0,0.2-0.2,0.3-0.2c0.1,0,0.2,0,0.7,0.9c0.6,1.2,1.5,2.7,3.5,2.7c2.2,0,5.2-2.3,5.2-3.5c0-0.1-0.1-0.4-0.4-0.4
	c-0.2,0-0.3,0-0.8,0.5c-0.4,0.3-0.9,0.5-1.4,0.5c-1.4,0-1.5-1.2-1.5-2.8v-13.8c0-2-1.1-3.6-5.8-3.6c-7.5,0-10.7,5.1-10.7,6.8
	c0,0.6,0.5,1,1.1,1c0,0,2.9-0.2,3.7-2.4c0.4-1.1,1.5-4.2,4.4-4.2c2.3,0,2.5,2.4,2.5,4.1V190.4L66,190.4z M66,196.7
	c0,3.5-1.9,5.3-4.2,5.3c-1.1,0-2.2-0.9-2.2-3.3c0-1,0-2.9,3.1-4.4c0.8-0.4,2-1,2.7-1c0.2,0,0.5,0,0.5,0.5V196.7L66,196.7z"/>
<path class="st1" d="M107.6,199.7c0,2.8,0,3.4-2,3.7c-1.1,0.1-1.5,0.3-1.5,0.8c0,0.6,0.5,0.6,0.8,0.6c0.8,0,2.3-0.2,5.1-0.2
	c2.6,0,4.3,0.2,5.1,0.2c0.3,0,0.8,0,0.8-0.6c0-0.4-0.2-0.7-1.5-0.8c-2-0.3-2-0.9-2-3.7v-11.9c0-1.6-0.5-6.1-7-6.1
	c-1.7,0-3.6,0.7-5.6,2.3c-0.2,0.2-1.4,1.4-1.7,1.4c-0.2,0-0.3-0.1-1-1.2c-1.6-2.5-4.7-2.6-5.3-2.6c-2.2,0-4,0.3-6.8,3.2
	c-0.3,0.3-0.5,0.5-0.7,0.5c-0.2,0-0.2-0.1-0.2-1v-2.4c0-0.4-0.1-0.9-0.5-0.9c-0.3,0-0.7,0.5-1.1,0.9c-1.5,1.8-4.7,3.1-5.1,3.2
	c-0.5,0.1-0.7,0.3-0.7,0.6c0,0.6,0.6,0.6,1.4,0.7c1.5,0.1,1.5,1.2,1.5,3.5v9.5c0,2.8,0,3.3-2.1,3.6c-1.1,0.1-1.5,0.3-1.5,0.8
	c0,0.6,0.5,0.6,0.9,0.6c0.8,0,2.8-0.2,5.1-0.2c2.5,0,4.4,0.2,5,0.2c0.4,0,0.9,0,0.9-0.6c0-0.4-0.2-0.7-1.5-0.8c-2-0.3-2-0.9-2-3.7
	v-10.5c0-1.2,0.1-2.1,0.8-2.8c0.9-1,2-1.7,4.3-1.7c3.4,0,4.1,2.8,4.1,5.3v9.7c0,2.8,0,3.4-2,3.7c-1.1,0.1-1.5,0.3-1.5,0.8
	c0,0.6,0.4,0.6,0.8,0.6c0.8,0,2.4-0.2,5.1-0.2c2.7,0,4.3,0.2,5.1,0.2c0.3,0,0.8,0,0.8-0.6c0-0.4-0.2-0.7-1.5-0.8c-2-0.3-2-0.9-2-3.7
	v-10.7c0-1,0-2.1,0.7-2.8c0.6-0.6,2-1.7,4.3-1.7c4.2,0,4.2,3.4,4.2,4.8V199.7L107.6,199.7z"/>
<path class="st1" d="M120.9,199.8c0,2.7,0,3.3-2.1,3.6c-1.1,0.1-1.5,0.3-1.5,0.8c0,0.6,0.5,0.6,0.8,0.6c0.8,0,3.1-0.2,5.2-0.2
	c2.3,0,4.4,0.2,5.2,0.2c0.3,0,0.8,0,0.8-0.6c0-0.4-0.2-0.7-1.5-0.8c-2.1-0.3-2.1-0.9-2.1-3.6v-16c0-1.1,0-1.7-0.5-1.7
	c-0.4,0-1.9,1.3-2.3,1.6c-0.8,0.6-2,1.2-4.4,2c-0.6,0.2-0.8,0.4-0.8,0.8c0,0.6,0.8,0.6,0.9,0.6c1.8,0.1,2.2,0.8,2.2,3.3V199.8
	L120.9,199.8z M126,176.4c0-1.5-1.2-2.8-2.7-2.8c-1.6,0-2.8,1.3-2.8,2.7c0,1.4,1.2,2.7,2.8,2.7C124.9,179,126,177.7,126,176.4
	L126,176.4z"/>
<path class="st1" d="M145.9,199.8c0,2,0,3.4-2.5,3.5c-1,0-1.7,0.1-1.7,0.8c0,0.7,0.6,0.7,1,0.7c0.2,0,5-0.2,5.9-0.2
	c1.2,0,7.6,0.2,9.1,0.2c13,0,16.6-10.3,16.6-15.6c0-4.8-2.5-9.6-6.6-12.4c-3.2-2.2-6.7-3.2-13.1-3.2c-4.6,0-12.9,0.7-12.9,2.1
	c0,0.4,0.2,0.5,0.7,0.5c0.3,0,1.8-0.4,2.1-0.4c1,0,1.6,0.7,1.6,2.7V199.8L145.9,199.8z M151.2,179c0-2.8,0.3-4,3.3-4
	c10.5,0,13.8,8.9,13.8,14.5c0,7.9-5.9,14-12.5,14c-3.8,0-4.7-1.7-4.7-4.9V179L151.2,179z"/>
<path class="st1" d="M189.3,190.4c0,0.9,0,1.3-1.2,1.8c-7.6,3-10.3,5.2-10.3,8.8c0,0.7,0.2,4.2,3.9,4.2c2.2,0,4.9-1.8,7-3.5
	c0,0,0.2-0.2,0.3-0.2c0.1,0,0.2,0,0.7,0.9c0.6,1.2,1.5,2.7,3.5,2.7c2.2,0,5.2-2.3,5.2-3.5c0-0.1-0.1-0.4-0.4-0.4
	c-0.2,0-0.3,0-0.8,0.5c-0.4,0.3-0.9,0.5-1.4,0.5c-1.4,0-1.5-1.2-1.5-2.8v-13.8c0-2-1.1-3.6-5.8-3.6c-7.5,0-10.7,5.1-10.7,6.8
	c0,0.6,0.5,1,1.1,1c0,0,2.9-0.2,3.7-2.4c0.4-1.1,1.5-4.2,4.4-4.2c2.3,0,2.5,2.4,2.5,4.1V190.4L189.3,190.4z M189.3,196.7
	c0,3.5-1.9,5.3-4.2,5.3c-1.1,0-2.2-0.9-2.2-3.3c0-1,0-2.9,3.1-4.4c0.8-0.4,2-1,2.7-1c0.2,0,0.5,0,0.5,0.5V196.7L189.3,196.7z"/>
<path class="st1" d="M222.1,177.4c0-0.7,0.2-4.1,0.2-4.8c0-0.2,0-0.9-0.6-0.9c-0.2,0-0.5,0.1-0.6,0.2c-2.7,1.3-4.6,1.7-5.7,1.9
	c-0.1,0-0.9,0.2-0.9,0.8c0,0.4,0.6,0.5,0.9,0.6c1.6,0.1,1.8,0.5,1.8,2v5.3c0,0.2-0.1,0.4-0.3,0.4c-0.1,0-0.4-0.1-0.6-0.2
	c-0.8-0.4-2.6-0.8-4.2-0.8c-5.6,0-12,4.5-12,12.2c0,6.6,4.9,11.1,10.5,11.1c2.8,0,4.5-1.2,5.9-2.3c0.2-0.2,0.5-0.3,0.7-0.3
	c0.3,0,0.4,0.4,0.4,0.7c0.1,1.8,0.4,1.9,0.8,1.9c0.3,0,2.9-1,3.4-1.2c3.3-1.1,3.4-1.1,3.4-2.4c0-0.1,0-0.6-0.3-0.6
	c-0.4,0-1.7,1.3-2,1.3c-0.4,0-0.7-0.3-0.7-1.7V177.4L222.1,177.4z M217.5,199.5c0,0.9,0,2.8-4.2,2.8c-4.9,0-7.9-4.2-7.9-9.8
	c0-6.5,3.7-9.7,7.1-9.7c5,0,5,4.5,5,6.7V199.5L217.5,199.5z"/>
<path class="st1" d="M247.4,189.9c0.8,0,1.3,0,1.3-0.9c0-1.7-1.6-7.2-9.1-7.2c-6.7,0-12.3,4.8-12.3,12.1c0,6.9,5,11.2,11.5,11.2
	c6.3,0,9.8-4.4,9.8-5.1c0-0.2-0.1-0.4-0.4-0.4c-0.3,0-0.3,0-1.1,0.8c-1.2,1.1-3.2,2-5.5,2c-5.1,0-8.8-4.3-8.8-9.8
	c0-2.6,0.4-2.6,1.3-2.6H247.4L247.4,189.9z M234.9,188.4c-1.1,0-1.3,0-1.3-0.5c0-0.8,1.5-4.9,6-4.9c0.7,0,4.1,0.1,4.1,3
	c0,1.3-1.2,2.4-3.4,2.4H234.9L234.9,188.4z"/>
</svg>
