<?xml version="1.0" encoding="utf-8"?>
<!-- Generator: Adobe Illustrator 19.2.1, SVG Export Plug-In . SVG Version: 6.00 Build 0)  -->
<svg version="1.1" id="Layer_1" xmlns="http://www.w3.org/2000/svg" xmlns:xlink="http://www.w3.org/1999/xlink" x="0px" y="0px"
	 viewBox="0 0 159.6 180.7" style="enable-background:new 0 0 159.6 180.7;" xml:space="preserve">
<style type="text/css">
	.st0{display:none;}
	.st1{display:inline;fill:#A9A9A9;}
	.st2{fill:#FF7977;}
</style>
<g id="Logo">
	<g id="_x32_px_Stroke" class="st0">
		<path class="st1" d="M177.8-7v196h-196V-7H177.8 M179.8-9h-200v200h200V-9L179.8-9z"/>
	</g>
	<g>
		<path class="st2" d="M136.4,95.6c0-3.5-0.9-7-2.1-10.2c-1-2.5-2.1-5-3.2-7.4c-8.9-19.4-18.2-38.6-28-57.5
			c-1.4-2.7-2.7-5.3-4.2-7.9c-1.4-2.5-3.1-5-5.2-7c-3.4-3.3-8-5.2-12.8-5.5h-2.2c-4.9,0.2-9.6,2.3-13.1,5.7c-2.1,2-3.7,4.4-5.1,6.8
			c-1.4,2.6-2.8,5.2-4.1,7.8C49.9,33,43.5,45.9,37.4,58.8c-3.7,7.7-7.3,15.5-10.8,23.3c-1.5,3.3-2.8,6.6-3.3,10.2
			c-0.9,6,0.4,12.3,3.6,17.4c2.8,4.5,6.9,8.1,11.7,10.2c3.8,1.6,7.9,2.4,12,2.1c5.5-0.3,10.8-2.3,15.4-5.1
			c5.2-3.2,9.6-7.4,13.7-11.8c3.8,4.1,7.9,8.1,12.7,11.2c4.6,3,9.8,5.2,15.3,5.7c6,0.6,12.1-0.9,17.1-4.2c4.4-2.9,7.9-7.2,9.8-12.1
			C135.9,102.4,136.5,99,136.4,95.6z M79.8,93.3c-1.5-1.8-2.8-3.7-4.1-5.6c-2.2-3.3-4.2-6.7-5.9-10.3c-1.3-3-2.4-6.1-2.8-9.4
			c-0.3-2.6-0.2-5.3,0.7-7.7c0.8-2.3,2.5-4.3,4.6-5.6c4.9-3.2,12-2.8,16.4,1c2.3,1.9,3.6,4.8,4,7.7c0.4,3.9-0.4,7.8-1.8,11.4
			C88.2,81.6,84.2,87.6,79.8,93.3z M128.2,101.5c-1.3,4.5-4.5,8.5-8.6,10.8c-3.7,2.1-8.1,2.8-12.2,2.1c-5.3-0.8-10-3.6-14.1-6.9
			c-3-2.4-5.7-5.2-8.3-8c4.1-5.2,8-10.6,10.9-16.6c2.6-5.2,4.5-10.8,4.7-16.7c0.1-3.7-0.6-7.5-2.3-10.8c-2.3-4.4-6.3-7.8-11-9.4
			c-4.4-1.6-9.2-1.7-13.6-0.4c-4.2,1.2-8,3.7-10.6,7.2c-2.3,3-3.6,6.8-3.9,10.6c-0.5,5.5,0.9,10.9,3,15.9c3.1,7.3,7.6,14,12.6,20.1
			c-2.2,2.6-4.7,5-7.3,7.3c-4.1,3.4-8.7,6.4-13.9,7.6c-4.2,1-8.8,0.5-12.7-1.5c-4.6-2.3-8.1-6.6-9.4-11.5c-1-3.6-0.8-7.5,0.4-11.1
			c1-2.9,2.4-5.7,3.6-8.5c8.8-19.2,18-38.2,27.7-56.9c1.4-2.8,2.9-5.6,4.4-8.3c1.2-2.2,2.7-4.4,4.7-5.9c2.2-1.7,5-2.6,7.7-2.6
			c2.9,0,5.7,1,7.9,2.9c2.2,1.8,3.6,4.3,5,6.7c3,5.6,5.8,11.3,8.7,16.9c8.2,16.2,16,32.5,23.6,49.1c1.1,2.6,2.4,5.1,3.1,7.8
			C129.1,94.6,129.1,98.2,128.2,101.5z"/>
		<path class="st2" d="M37.1,137c2.5-0.6,5.2,1.1,5.8,3.5c0.8,2.5-0.8,5.4-3.3,6.1c-2.5,0.9-5.4-0.6-6.2-3.1
			c-0.8-2.1,0.1-4.6,1.9-5.8C35.8,137.4,36.4,137.2,37.1,137L37.1,137z"/>
		<path class="st2" d="M53.7,153.2c1.5-1.6,3.6-2.6,5.7-2.9c1.4-0.1,2.9,0,4.3,0.3c0,2.3,0,4.5,0,6.8c-2.2-0.6-4.6-0.7-6.8,0.1
			c-1.2,0.4-2.2,1.1-3.1,2c-0.2,0.2-0.1,0.4-0.2,0.6c0,6.3,0,12.7,0,19c0,0.2,0,0.5-0.1,0.7c-2.4,0.1-4.9,0-7.4,0c0-9.7,0-19.3,0-29
			c2.1,0,4.1,0,6.2,0c0.5,0,0.9,0.2,1.1,0.6C53.7,152.1,53.7,152.6,53.7,153.2L53.7,153.2z"/>
		<path class="st2" d="M106.5,153.2c2-2,4.8-3,7.6-3c2.9-0.1,6,0.8,8.2,2.7c1.5,1.2,2.6,2.8,3.1,4.7c0.6,2.3,0.6,4.6,0.6,7
			c0,5.1,0,10.2,0,15.4c-2.5,0-4.9,0-7.4,0c0-5.1,0-10.2,0-15.4c0-1.9,0.1-4-0.9-5.7c-0.7-1.2-2.1-1.8-3.4-2c-2.6-0.4-5.2,0.6-7,2.5
			c-0.2,0.2-0.3,0.4-0.3,0.7c0,0.8,0.1,1.6,0,2.4c-0.1,1.1,0.1,2.2,0,3.2c0,2,0,4.1,0,6.1c-0.1,2.7,0.1,5.4-0.1,8.1
			c-2.5,0-4.9,0-7.4,0c0-9.7,0-19.4,0-29c1.9,0,3.8,0,5.7,0c0.5,0,1,0.2,1.2,0.7C106.6,152.2,106.5,152.7,106.5,153.2L106.5,153.2z"
			/>
		<path class="st2" d="M34.3,179.9c0-9.7,0-19.4,0-29c2.5,0,4.9,0,7.4,0c0,9.7,0,19.4,0,29C39.3,179.9,36.8,179.9,34.3,179.9
			L34.3,179.9z"/>
		<path class="st2" d="M29.8,150.9c-1.9,0-3.9,0-5.8,0c-0.5,0-1.2,0-1.4,0.6c-0.2,0.6-0.1,1.2-0.2,1.8c-1.6-1.7-3.9-2.7-6.2-3
			c-3.6-0.3-7.4,0.7-10.2,2.9c-2.4,1.8-4.2,4.3-5.1,7.1c-0.4,1.3-0.7,2.7-0.8,4.1v2c0.2,4.2,2.1,8.3,5.3,11c2.4,2.1,5.6,3.2,8.7,3.4
			h1.7c2.5-0.2,5-1.2,6.7-3.1c0,0.6-0.1,1.2,0.2,1.8c0.2,0.5,0.8,0.6,1.2,0.6c2,0,4,0,6,0C29.8,170.2,29.8,160.6,29.8,150.9z
			 M22.1,170.9c-1.5,1.8-3.8,2.9-6.2,2.8c-2.5,0-5.1-0.9-6.7-2.9c-1.6-1.9-2.1-4.5-1.7-6.9c0.3-1.9,1.3-3.8,2.8-5
			c1.4-1.1,3.2-1.7,5-1.8c2.7-0.2,5.5,0.9,7,3.1c0.1,3.2,0,6.3,0,9.5C22.4,170.1,22.5,170.6,22.1,170.9z"/>
		<path class="st2" d="M95.3,159.2c-1.1-2.8-3.2-5.2-5.7-6.8c-2.6-1.6-5.8-2.4-8.9-2.2c-2.4,0.2-4.8,1.2-6.5,3c0-5.4,0-10.8,0-16.3
			c-2.5,0-4.9,0-7.4,0c0,14.3,0,28.6,0,43c2,0,4.1,0,6.1,0c0.5,0,1.1-0.2,1.2-0.8c0.1-0.5,0.1-1.1,0.1-1.6c1.7,1.9,4.2,2.9,6.8,3.1
			h1.5c4.1-0.2,8.1-2.1,10.7-5.4C96.8,170.9,97.5,164.4,95.3,159.2z M86.7,171.4c-1.7,1.5-3.9,2.3-6.2,2.3c-2.3,0.1-4.7-1-6.1-2.8
			c-0.2-0.2-0.2-0.4-0.2-0.7c0-3.3,0-6.6,0-10c1.4-1.9,3.7-3,6-3.1c2.4-0.1,4.8,0.6,6.6,2.3c1.6,1.5,2.5,3.8,2.4,6
			C89.1,167.6,88.3,169.9,86.7,171.4z"/>
		<path class="st2" d="M156.3,155.6c-3.1-4-8.5-6-13.5-5.3c-2.1,0.3-4.1,1.3-5.5,2.9c0-5.4,0-10.8,0-16.3c-2.5,0-4.9,0-7.4,0
			c0,14.3,0,28.6,0,43c1.9,0,3.9,0,5.8,0c0.5,0,1.1,0,1.4-0.6c0.2-0.6,0.1-1.2,0.2-1.8c1.7,1.9,4.2,2.9,6.7,3.1h1.7
			c4.1-0.2,8-2.1,10.6-5.3c2.1-2.5,3.2-5.8,3.4-9.1v-1.9C159.4,161.2,158.3,158.1,156.3,155.6z M150.5,170.6c-2,2.5-5.4,3.5-8.5,3
			c-1.9-0.4-3.7-1.4-4.8-3c-0.1-1.2,0-2.5,0-3.7c0-2.3-0.1-4.5,0-6.8c1.1-1.5,2.9-2.5,4.8-2.9c3.4-0.6,7.4,0.7,9.1,3.9
			C152.7,164,152.6,167.9,150.5,170.6z"/>
	</g>
</g>
<g id="Guides">
</g>
</svg>
