<?xml version="1.0" encoding="utf-8"?>
<!-- Generator: Adobe Illustrator 19.2.1, SVG Export Plug-In . SVG Version: 6.00 Build 0)  -->
<svg version="1.1" id="Layer_1" xmlns="http://www.w3.org/2000/svg" xmlns:xlink="http://www.w3.org/1999/xlink" x="0px" y="0px"
	 viewBox="0 0 279.1 40.2" style="enable-background:new 0 0 279.1 40.2;" xml:space="preserve">

<g>
	<g>
		<path class="st1" d="M54.4,33.4v-2.2c0.5-0.1,1-0.2,1.4-0.2l-5.5-6.6v6.5c0.6,0.1,1.2,0.2,1.8,0.3v2.2h-7.7v-2.2
			c0.7-0.2,1.6-0.3,2.4-0.4V17.5c-0.8-0.1-1.7-0.2-2.4-0.4v-2.2H52v2.2c-0.6,0.2-1.2,0.3-1.8,0.3v6.1l5.5-6.2c-0.4,0-1-0.1-1.4-0.2
			v-2.2h7.5v2.2c-0.5,0.1-1.2,0.2-1.7,0.3l-5.9,6.4l6.2,7.1c0.5,0.1,1.2,0.2,1.7,0.3v2.2H54.4z"/>
		<path class="st1" d="M73.8,33.4v-8.7c0-1.4-0.4-2.2-1.7-2.2c-1.8,0-3.2,2-3.2,4.4v4c0.7,0.1,1.4,0.2,2,0.3v2.2h-7.9v-2.2
			c0.7-0.2,1.6-0.3,2.4-0.4v-8.4c-0.7-0.1-1.6-0.2-2.4-0.3V20c1.8-0.2,3.9-0.3,5.7-0.2c0,0.6-0.1,1.7-0.2,2.5h0
			c0.8-1.6,2.4-2.7,4.6-2.7c3.1,0,4.1,1.9,4.1,4.3v7c0.8,0.1,1.6,0.2,2.2,0.4v2.2H73.8z"/>
		<path class="st1" d="M80.3,33.4v-2.2c0.7-0.2,1.6-0.3,2.4-0.4v-8.4c-0.7-0.1-1.6-0.2-2.4-0.3V20c1.8-0.2,3.9-0.3,5.9-0.2v11.1
			c0.8,0.1,1.6,0.2,2.2,0.4v2.2H80.3z M84.4,17.7c-1.2,0-2.2-0.9-2.2-2.1c0-1.2,1-2.1,2.2-2.1c1.2,0,2.2,0.9,2.2,2.1
			C86.6,16.8,85.6,17.7,84.4,17.7z"/>
		<path class="st1" d="M95.2,40.2c-3.6,0-5.8-1.4-5.8-4.1c0-1.4,1-2.7,2.1-3.3c-0.8-0.4-1.3-1.2-1.3-2.1c0-1.1,0.7-2,1.6-2.4
			c-1.3-0.7-2-1.9-2-3.7c0-2.7,2-5.1,6-5.1c0.9,0,1.5,0.1,2.2,0.3h4.6v2.7h-1.9c0.4,0.4,0.7,1,0.7,1.7c0,2.9-1.9,4.9-5.8,4.9
			c-0.4,0-0.7,0-1.1-0.1c-0.4,0.2-0.7,0.5-0.7,0.9c0,0.6,0.5,0.8,2.1,0.8l2.1,0.1c2.9,0.1,4.6,1.4,4.6,4
			C102.7,37.8,99.8,40.2,95.2,40.2z M97.1,33.5l-2.4-0.1h-0.6c-0.8,0.6-1.3,1.3-1.3,2.1c0,1.3,1.1,2,2.9,2c2.3,0,3.5-1,3.5-2.3
			C99.2,34.3,98.6,33.6,97.1,33.5z M95.6,22c-1.6,0-2.5,1-2.5,2.4c0,1.5,0.9,2.4,2.5,2.4c1.5,0,2.5-0.9,2.5-2.3
			C98.1,23,97.2,22,95.6,22z"/>
		<path class="st1" d="M114,33.4v-8.7c0-1.4-0.4-2.2-1.7-2.2c-1.8,0-3.2,2-3.2,4.4v4c0.7,0.1,1.4,0.2,2,0.3v2.2h-7.7v-2.2
			c0.7-0.2,1.5-0.3,2.2-0.4V16.1c-0.7-0.1-1.6-0.2-2.3-0.3v-2.2c1.7-0.2,3.8-0.3,5.8-0.2v5.9c0,0.8-0.1,1.9-0.2,2.8h0
			c0.8-1.5,2.4-2.5,4.5-2.5c3.1,0,4.1,1.9,4.1,4.3v7c0.7,0.1,1.5,0.2,2.2,0.4v2.2H114z"/>
		<path class="st1" d="M126.3,33.6c-3,0-3.9-1.1-3.9-4.3v-6.9H120v-2.7h2.4v-4.2l3.5-0.9v5.1h3.3v2.7h-3.3v6c0,1.8,0.4,2.2,1.6,2.2
			c0.6,0,1.1-0.1,1.6-0.2l0.2,2.8C128.3,33.5,127.2,33.6,126.3,33.6z"/>
		<path class="st1" d="M146,19.6c-0.1-0.6-0.2-1.2-0.3-1.9h-3.7v5.1h3.1c0.1-0.5,0.2-1,0.3-1.5h2.3V27h-2.3c-0.1-0.5-0.2-1-0.3-1.5
			h-3.1v5.3c0.8,0.1,1.7,0.2,2.4,0.4v2.2h-8.3v-2.2c0.7-0.2,1.6-0.3,2.4-0.4V17.5c-0.8-0.1-1.7-0.2-2.4-0.4v-2.2h12.6v4.7H146z"/>
		<path class="st1" d="M156.5,33.6c-3.9,0-6.4-2-6.4-6.8c0-4.3,2.8-7.4,7-7.4c3.9,0,6.4,2.1,6.4,6.8
			C163.5,30.6,160.6,33.6,156.5,33.6z M156.9,22.4c-1.6,0-3.1,1.2-3.1,4.1c0,2.7,1,4.1,3,4.1c1.7,0,3-1.4,3-4.1
			C159.9,23.9,158.9,22.4,156.9,22.4z"/>
		<path class="st1" d="M175.3,33.4c0-0.7,0.1-1.7,0.2-2.5h-0.1c-0.8,1.6-2.4,2.7-4.6,2.7c-3.1,0-4.1-1.9-4.1-4.3v-6.9
			c-0.7-0.1-1.5-0.2-2.2-0.3V20c1.6-0.2,3.7-0.3,5.7-0.2v8.7c0,1.4,0.4,2.2,1.7,2.2c1.8,0,3.2-2,3.2-4.4v-3.9
			c-0.6-0.1-1.3-0.2-2-0.2v-2.2c1.6-0.2,3.6-0.2,5.5-0.2v11c0.7,0.1,1.5,0.2,2.2,0.3v2.2C179.2,33.4,177.1,33.5,175.3,33.4z"/>
		<path class="st1" d="M192.2,33.4v-8.7c0-1.4-0.4-2.2-1.7-2.2c-1.8,0-3.2,2-3.2,4.4v4c0.7,0.1,1.4,0.2,2,0.3v2.2h-7.9v-2.2
			c0.7-0.2,1.6-0.3,2.4-0.4v-8.4c-0.7-0.1-1.6-0.2-2.4-0.3V20c1.8-0.2,3.9-0.3,5.7-0.2c0,0.6-0.1,1.7-0.2,2.5h0
			c0.8-1.6,2.4-2.7,4.6-2.7c3.1,0,4.1,1.9,4.1,4.3v7c0.8,0.1,1.6,0.2,2.2,0.4v2.2H192.2z"/>
		<path class="st1" d="M208.1,33.4c0-0.7,0.1-1.6,0.2-2.3h-0.1c-0.7,1.5-2.2,2.6-4.3,2.6c-3.3,0-5-2.5-5-6.4c0-4.6,2.7-7.8,7.2-7.8
			c0.6,0,1.1,0,1.7,0.1v-3.6c-0.7-0.1-1.6-0.2-2.4-0.3v-2.2c1.7-0.2,3.9-0.3,5.9-0.2v17.3c0.7,0.1,1.6,0.2,2.2,0.3v2.2
			C212,33.4,209.9,33.5,208.1,33.4z M207.9,22.5c-0.6-0.1-1.2-0.2-1.8-0.2c-2,0-3.4,1.3-3.4,4.6c0,2.5,0.7,3.9,2.3,3.9
			c1.8,0,2.9-2.1,2.9-4.5V22.5z"/>
		<path class="st1" d="M222.8,33.4c0-0.8,0-1.6,0.1-2.3l0,0c-0.7,1.5-2.3,2.6-4.4,2.6c-2.4,0-3.9-1.5-3.9-3.7c0-3.3,3.2-4.8,7.9-4.8
			v-0.8c0-1.5-0.6-2.3-2.4-2.3c-0.7,0-1.4,0.1-2,0.3c-0.1,0.5-0.1,1.2-0.3,1.8h-2.2v-4c1.4-0.4,3.1-0.7,4.7-0.7
			c4.5,0,5.7,1.8,5.7,4.7v6.5c0.7,0.1,1.5,0.2,2.2,0.3v2.2C226.6,33.4,224.5,33.5,222.8,33.4z M222.5,27.4c-3.1,0-4.5,0.7-4.5,2.1
			c0,0.9,0.6,1.6,1.6,1.6c1.7,0,2.9-1.6,2.9-3.3V27.4z"/>
		<path class="st1" d="M234.7,33.6c-3,0-3.9-1.1-3.9-4.3v-6.9h-2.4v-2.7h2.4v-4.2l3.5-0.9v5.1h3.3v2.7h-3.3v6c0,1.8,0.4,2.2,1.6,2.2
			c0.6,0,1.1-0.1,1.6-0.2l0.2,2.8C236.8,33.5,235.7,33.6,234.7,33.6z"/>
		<path class="st1" d="M238.9,33.4v-2.2c0.7-0.2,1.6-0.3,2.4-0.4v-8.4c-0.7-0.1-1.6-0.2-2.4-0.3V20c1.8-0.2,3.9-0.3,5.9-0.2v11.1
			c0.8,0.1,1.6,0.2,2.2,0.4v2.2H238.9z M243.1,17.7c-1.2,0-2.2-0.9-2.2-2.1c0-1.2,1-2.1,2.2-2.1c1.2,0,2.2,0.9,2.2,2.1
			C245.3,16.8,244.3,17.7,243.1,17.7z"/>
		<path class="st1" d="M254.4,33.6c-3.9,0-6.4-2-6.4-6.8c0-4.3,2.8-7.4,7-7.4c3.9,0,6.4,2.1,6.4,6.8
			C261.4,30.6,258.5,33.6,254.4,33.6z M254.8,22.4c-1.6,0-3.1,1.2-3.1,4.1c0,2.7,1,4.1,3,4.1c1.7,0,3-1.4,3-4.1
			C257.7,23.9,256.8,22.4,254.8,22.4z"/>
		<path class="st1" d="M273.4,33.4v-8.7c0-1.4-0.4-2.2-1.7-2.2c-1.8,0-3.2,2-3.2,4.4v4c0.7,0.1,1.4,0.2,2,0.3v2.2h-7.9v-2.2
			c0.7-0.2,1.6-0.3,2.4-0.4v-8.4c-0.7-0.1-1.6-0.2-2.4-0.3V20c1.8-0.2,3.9-0.3,5.7-0.2c0,0.6-0.1,1.7-0.2,2.5h0
			c0.8-1.6,2.4-2.7,4.6-2.7c3.1,0,4.1,1.9,4.1,4.3v7c0.8,0.1,1.6,0.2,2.2,0.4v2.2H273.4z"/>
	</g>
</g>
<g>
	<polygon class="st1" points="0,3.5 9.4,3.5 0,17.7 9.4,33.3 0,33.3 	"/>
	<polygon class="st1" points="17.3,3.5 34,3.5 34,9.6 17.3,9.6 17.3,14.8 34,14.8 34,20.9 17.3,20.9 17.3,33.3 7.2,17.7 	"/>
</g>
</svg>
