<?xml version="1.0" encoding="utf-8"?>
<!-- Generator: Adobe Illustrator 19.2.1, SVG Export Plug-In . SVG Version: 6.00 Build 0)  -->
<svg version="1.1" id="Layer_1" xmlns="http://www.w3.org/2000/svg" xmlns:xlink="http://www.w3.org/1999/xlink" x="0px" y="0px"
	 viewBox="0 0 220.3 96" style="enable-background:new 0 0 220.3 96;" xml:space="preserve">
<style type="text/css">
	.st0{fill:#FFFFFF;}
</style>
<g>
	<path class="st0" d="M0,51.8C0,34.6,0,17.3,0,0c73.4,0,146.9,0,220.3,0c0,22.9,0,45.8,0,68.6c-0.7-0.9-1.2-2-2-2.7
		c-0.8-0.6-1-1.2-1-2.2c0.2-6.7,0.5-13.4,0.6-20.1c0.1-5.2-2.7-8.8-7.2-10.9c-5.7-2.7-11.3-1.3-16.7,1c-2,0.8-2.9,3.3-2.3,5.4
		c0.6,2.1,2.5,3.7,4.7,3.6c1,0,2-0.5,3-0.7c1.8-0.4,3.5-0.9,5.3-1c2.4-0.1,3.5,1.2,3.5,3.5c0,0.9-0.1,1.8,0,2.8
		c0.1,1.1-0.3,1.3-1.3,1.4c-3,0-5.9-0.1-8.8,0.4c-7.3,1.1-11.8,7.9-10.3,15.1c1.3,6.1,6.6,10.4,13.3,10.5c4.8,0.1,9.6,0,14.4,0
		c1.4,0,2.7-0.5,3.6-1.5c0.6-0.6,0.9-1.4,1.4-2.1c0,8.3,0,16.6,0,25c-51.5,0-103,0-154.6,0c0.1-0.1,0.3-0.2,0.4-0.2
		c2-0.7,3.2-2.1,3.6-4.1c0.3-2.2-0.4-4-2.3-5.3c-0.3-0.2-0.5-0.8-0.5-1.2c0-1.8,0-3.6,0.1-5.4c0-1.3,0.1-2.5,0.2-3.8
		c0.5,0,0.8,0.1,1.1,0.1c3.9,0.4,7.7,0.1,11.5-1.2c8.5-3,14.9-11.1,15.5-19.6c0.9-12.7-9.2-22.3-20.8-23c-4.9-0.3-9.9-0.1-14.9-0.1
		c-2.2,0-3.7,1.2-4.5,3.1c-0.8,2-0.7,4.1,0.9,5.4c1.4,1.2,1.4,2.5,1.3,4c0,0.5-0.1,1-0.1,1.4c-0.3,14.4-0.6,28.8-0.9,43.3
		c-0.1,3.8,0.7,5,4.2,6.5C40.3,96,20.2,96,0,96c0-13.1,0-26.2,0-39.4c0.1,0.4,0.2,0.8,0.3,1.3c1.6,8,6,13.8,13.5,16.9
		c10.3,4.3,21.8,0.5,28.1-8.9c7.6-11.3,3.5-26.9-8.8-32.8C21.5,27.4,7.2,32.9,2,45C1.1,47.1,0.6,49.5,0,51.8z M114.5,57.3
		c0.5,0,1,0,1.5,0c7,0,14,0,21,0c0.8,0,1.5,0,2.3-0.2c2.2-0.4,3.9-2.4,3.9-4.7c0-0.8,0-1.6,0-2.4c-0.2-7.9-3.9-13.7-11-17
		c-10.1-4.7-22.3,0.7-26.3,11.4c-1.7,4.5-1.9,9.3-1.3,14c1.1,8.1,5.3,13.9,13.3,16.4c7.2,2.3,14.1,0.9,20.5-2.8
		c2.5-1.5,3.1-4.4,1.7-6.8c-1.5-2.3-4.4-2.9-6.8-1.5c-3.3,2-7,2.7-10.8,2.2C118.1,65.4,114.5,61.5,114.5,57.3z M155.1,56.7
		c-0.1,0-0.2,0-0.3,0c0,4.4,0,8.7,0,13.1c0,3.2,2.2,5.5,5.2,5.6c3.1,0.1,5.5-2.3,5.6-5.5c0.2-8.7,0.5-17.3,0.7-26
		c0-0.8,0.3-1.1,1.1-1.1c2,0,4.1,0,6.1,0c0.5,0,1.2,0.3,1.6,0.6c1.8,1.5,3.7,1.8,5.8,0.9c2.1-1,3.2-2.6,3.2-5c0-0.6,0-1.3,0-1.9
		c-0.1-3-2.3-5.4-5.3-5.4c-7,0-13.9,0-20.9,0c-2.4,0-4.5,1.6-5.2,3.8c-0.7,2.2,0,4.5,1.9,6c0.6,0.5,0.8,1,0.8,1.7
		C155.3,47.8,155.2,52.3,155.1,56.7z M164.7,14.7c1.4-0.3,2.5-0.2,3.5,1.2c2.9,4.1,3,4,7.8,4c0.1,0,0.2,0,0.2,0
		c-0.1-0.4-0.3-0.8-0.2-1.2c0.3-1,0.5-2.1,1.1-2.9c0.9-1.1,2.3-0.3,3.5-0.5c0.3,0,1,0.3,1.1,0.6c0.6,1.3,1.1,2.6,1.6,4
		c0.9,0,1.9,0,2.9,0c-1.3-0.3-1.7-1.4-2.1-2.4c-1.3-3.1-2.5-6.2-3.8-9.3c-0.2-0.4-0.4-0.7-0.7-1.3c-0.3,0.7-0.5,1-0.6,1.4
		c-1.3,3.3-2.6,6.7-3.9,10c-0.6,1.4-1.3,1.6-2.3,0.6c-1.5-1.5-2.8-3.1-4.1-4.6c0.6-0.8,1.2-1.5,1.6-2.2c1-1.8,0.4-4-1.5-4.4
		c-2.1-0.4-4.3-0.4-6.5-0.6c0,0.1-0.1,0.2-0.1,0.4c1.2,0.1,1.1,1,1.2,1.7c0,2.7,0,5.4,0,8c0,0.9-0.3,1.7-0.5,2.5c1,0,2.1,0,3,0
		c-0.3-0.3-0.9-0.7-0.9-1.2C164.6,17.4,164.7,16.1,164.7,14.7z M104.4,7.3c0.2,0.6,0.6,1.1,0.6,1.6c0,3,0,6,0,9
		c-0.1,1.8-0.9,2.2-2.5,1.5c-0.5-0.2-1-0.6-1.4-1.1c-0.7-0.7-1.4-1.6-2-2.4c-1.3-1.6-1.3-1.6-0.2-3.3c1.5-2.1,0.8-5.1-2.3-5.2
		c-1.8-0.1-3.6,0-5.1,0c0.2,0.4,0.7,0.9,0.7,1.5c0.1,3,0,6.1,0,9.1c0,0.6-0.3,1.3-0.4,1.9c1,0,2.2,0,3.2,0c-0.3-0.3-1-0.7-1-1.1
		c-0.1-1.3-0.1-2.7-0.1-4c1.5-0.4,2.7-0.2,3.5,1.3c0.6,1,1.3,1.9,2.2,2.7c0.5,0.5,1.2,1.1,1.9,1.1c2.1,0.1,4.3,0.1,6.2,0.1
		c-0.3-0.4-0.8-0.8-0.8-1.3c-0.1-3.3-0.1-6.5-0.1-9.8c0-0.5,0.4-1,0.6-1.4C106.4,7.3,105.3,7.3,104.4,7.3z M155.1,12.6
		c1,0.3,1.3,0.9,1.2,1.9c0,1-0.1,2.1,0,3.1c0.1,1.1-0.4,1.6-1.5,1.7c-2.7,0.3-5.1-0.4-6.7-2.6c-1.9-2.4-2.2-5.2-1-8.1
		c0.7-1.7,2-2.7,3.8-3c1.1-0.2,2.2-0.2,3.3,0c1.6,0.2,3.1,0.7,3.7,2.6c0.1-1,0.1-1.9,0.2-3c-2.1-0.1-4.1-0.4-6-0.4
		c-3.6,0-6.3,2.3-7.1,5.7c-0.8,3.6,0.6,7.1,3.6,8.6c2.7,1.4,5.5,1.4,8.4,0.5c0.7-0.2,1-0.7,1-1.4c0-1.2-0.1-2.5,0-3.7
		c0.1-0.7,0.5-1.3,0.7-1.9C157.7,12.6,156.4,12.6,155.1,12.6z M111.7,19.9c1.4,0.1,3,0.2,4.6,0.2c0.8,0,1.7,0,2.5-0.2
		c3.1-0.5,5.2-3.1,5.3-6.2c0.1-3.2-1.7-5.7-4.9-6.1c-2.6-0.3-5.3-0.1-7.6-0.1c0.2,0.3,0.7,0.8,0.7,1.3c0.1,3.1,0.1,6.2,0,9.3
		C112.3,18.7,111.9,19.3,111.7,19.9z M204,19.9c1.2,0.1,2.4,0.2,3.6,0.2c1.5,0,3.1,0,4.5-0.4c2.8-0.8,4.4-3.5,4.3-6.6
		c-0.1-2.7-1.9-4.9-4.8-5.4c-2.6-0.4-5.4-0.3-8-0.5c0.4,0.6,0.9,1,1,1.5c0.1,3.3,0,6.5-0.1,9.8C204.6,19,204.2,19.4,204,19.9z
		 M189.5,10.1c3.4,3.3,6.6,6.6,10.1,10c0-0.7,0.1-1.2,0.1-1.6c0-3.1,0-6.2,0-9.3c0-0.6,0.4-1.2,0.6-1.8c-0.8,0-1.8,0-3.2,0
		c1.5,0.4,1.6,0.5,1.6,1.7c0.1,2.1,0.1,4.2,0.1,6.3c0,0.6,0,1.1,0,2c-3.5-3.6-6.7-7-10-10.4c-0.1,0.1-0.2,0.1-0.4,0.2
		c0,0.5,0,1,0,1.5c0,3,0,5.9,0,8.9c0,0.9,0.1,1.8-1.3,2.2c1.4,0,2.5,0,3.4,0c-0.3-0.4-0.9-0.8-0.9-1.2
		C189.5,15.9,189.5,13.1,189.5,10.1z M82.3,20.1c4,0,7-2.9,7-6.8c0-3.7-2.8-6.3-6.8-6.3c-3.8,0-6.8,2.9-6.9,6.5
		C75.6,17.4,78.4,20.2,82.3,20.1z M56.3,5.1c0.3,0.5,1,1,1,1.6c0.1,3.8,0.1,7.5,0,11.3c0,0.6-0.4,1.3-0.6,1.9c1.1,0,2.5,0,3.8,0
		c-1.3-0.1-1.4-1.1-1.5-2.1c-0.1-1.6,0-3.1,0-4.7c0-0.2,0.1-0.6,0.3-0.7c1-0.5,3.4,0.2,4.1,1.2c0.1-0.8,0.1-1.5,0.2-2.1
		c-1.6,0-3.1,0-4.6,0c0-1.9,0-3.7,0-5.6c1,0,1.9-0.1,2.7,0c0.8,0.1,1.5,0.6,2.3,0.9c0-0.4,0.1-1,0.2-1.7C61.5,5.1,58.8,5.1,56.3,5.1
		z M130.9,6.7c-0.3,0.7-0.5,1.1-0.6,1.5c-1.3,3.2-2.5,6.4-3.8,9.6c-0.3,0.8-1,1.5-1.4,2.1c0.2,0,0.7,0,1.2,0c0.5,0,1,0,1.5,0
		c-0.2-0.3-0.5-0.6-0.4-0.8c0.3-1.2,0.7-2.4,1.2-3.5c0.3-0.6,4.2-0.4,4.4,0.2c0.6,1.3,1.1,2.7,1.6,4.1c0.9,0,1.8,0,2.4,0
		c-0.5-0.6-1.1-1.2-1.5-2c-1.1-2.5-2.1-5.1-3.2-7.6C132,9.1,131.5,8.1,130.9,6.7z M67.1,7.3c0.2,0.5,0.7,0.9,0.7,1.4
		c0.1,3.2,0,6.5,0,9.7c0,0.5-0.3,1-0.5,1.5c1.8,0,3.7,0,5.6,0c1.8,0,2-0.1,2-2.4c-0.6,1.8-2,1.7-3.2,1.7c-1.8-0.1-2.1-0.3-2.1-2.1
		c-0.1-2.7-0.1-5.4,0-8.2c0-0.6,0.4-1.2,0.6-1.7C69.1,7.3,67.9,7.3,67.1,7.3z"/>
	<path d="M60.5,96c-3.5-1.5-4.2-2.8-4.2-6.5c0.3-14.4,0.6-28.8,0.9-43.3c0-0.5,0.1-1,0.1-1.4c0-1.5,0.1-2.8-1.3-4
		c-1.6-1.3-1.8-3.4-0.9-5.4c0.8-2,2.4-3.1,4.5-3.1c5,0,9.9-0.2,14.9,0.1c11.6,0.6,21.7,10.3,20.8,23c-0.6,8.5-7,16.6-15.5,19.6
		c-3.7,1.3-7.6,1.6-11.5,1.2c-0.3,0-0.6,0-1.1-0.1c-0.1,1.3-0.1,2.6-0.2,3.8c-0.1,1.8-0.1,3.6-0.1,5.4c0,0.4,0.2,1,0.5,1.2
		c1.9,1.3,2.6,3.1,2.3,5.3c-0.3,2.1-1.6,3.4-3.6,4.1c-0.1,0-0.3,0.2-0.4,0.2C64,96,62.2,96,60.5,96z M67.7,53.9c-0.1,0-0.3,0-0.4,0
		c0,3.4,0,6.8,0,10.2c0,0.5-0.1,1.1,0.7,1.2c3.4,0.7,6.7,0.5,9.8-1.1c4.3-2.3,6.9-5.8,7.1-10.8c0.2-4.6-3.4-9.1-8.4-10.2
		c-2.4-0.6-5.1-0.4-7.6-0.6c-1-0.1-1.2,0.3-1.2,1.2C67.7,47.2,67.7,50.6,67.7,53.9z"/>
	<path d="M0,51.8c0.6-2.3,1.1-4.7,2-6.9c5.2-12.1,19.6-17.5,31.2-11.9C45.4,39,49.6,54.6,42,65.9c-6.4,9.4-17.9,13.2-28.1,8.9
		c-7.6-3.1-12-8.9-13.5-16.9c-0.1-0.4-0.2-0.8-0.3-1.3C0,55,0,53.4,0,51.8z M34.8,53.2c0-6.5-5-11.5-11.4-11.5
		c-6.8,0-12.6,5.7-12.6,12.4c0,6.5,5.1,11.6,11.6,11.6C29.2,65.7,34.8,60,34.8,53.2z"/>
	<path d="M220.3,71c-0.4,0.7-0.8,1.5-1.4,2.1c-1,1-2.2,1.5-3.6,1.5c-4.8,0-9.6,0.1-14.4,0c-6.7-0.1-12-4.4-13.3-10.5
		c-1.6-7.2,3-14,10.3-15.1c2.9-0.4,5.9-0.3,8.8-0.4c1.1,0,1.4-0.3,1.3-1.4c-0.1-0.9,0-1.8,0-2.8c0-2.3-1.1-3.6-3.5-3.5
		c-1.8,0.1-3.5,0.6-5.3,1c-1,0.2-2,0.6-3,0.7c-2.2,0.1-4.1-1.5-4.7-3.6c-0.6-2.1,0.3-4.6,2.3-5.4c5.4-2.3,11-3.7,16.7-1
		c4.5,2.2,7.3,5.7,7.2,10.9c-0.1,6.7-0.3,13.4-0.6,20.1c0,1,0.2,1.5,1,2.2c0.9,0.7,1.4,1.8,2,2.7C220.3,69.4,220.3,70.2,220.3,71z
		 M208,61.6c0,0,0.1,0,0.1,0c0-1.1,0-2.2,0-3.3c0-0.3-0.4-0.8-0.6-0.8c-2.7,0-5.4-0.1-8,0.2c-3.1,0.4-4.4,3.4-2.8,5.9
		c0.9,1.4,2.2,2.1,3.8,2.2c2.2,0.1,4.5,0.1,6.7,0c0.3,0,0.8-0.5,0.8-0.8C208.1,63.9,208,62.7,208,61.6z"/>
	<path d="M114.5,57.3c-0.1,4.2,3.6,8.2,8,8.7c3.8,0.5,7.5-0.2,10.8-2.2c2.4-1.5,5.4-0.8,6.8,1.5c1.5,2.3,0.9,5.3-1.7,6.8
		c-6.4,3.7-13.3,5.1-20.5,2.8c-8-2.5-12.2-8.4-13.3-16.4c-0.6-4.7-0.4-9.4,1.3-14c3.9-10.7,16.2-16.2,26.3-11.4
		c7.1,3.3,10.8,9.1,11,17c0,0.8,0,1.6,0,2.4c0,2.3-1.7,4.3-3.9,4.7c-0.7,0.1-1.5,0.2-2.3,0.2c-7,0-14,0-21,0
		C115.6,57.3,115,57.3,114.5,57.3z M114.1,49.3c6.8,0,13.5,0,20.1,0c-0.4-4.2-4.5-8.2-8.6-8.5C120,40.3,115.7,44,114.1,49.3z"/>
	<path d="M155.1,56.7c0.1-4.4,0.2-8.9,0.4-13.3c0-0.7-0.1-1.2-0.8-1.7c-1.9-1.4-2.6-3.8-1.9-6c0.7-2.2,2.7-3.7,5.2-3.8
		c7,0,13.9,0,20.9,0c3,0,5.2,2.3,5.3,5.4c0,0.6,0,1.3,0,1.9c0.1,2.4-1.1,4.1-3.2,5c-2.1,0.9-4,0.6-5.8-0.9c-0.4-0.3-1-0.6-1.6-0.6
		c-2-0.1-4.1,0-6.1,0c-0.8,0-1.1,0.3-1.1,1.1c-0.2,8.7-0.5,17.3-0.7,26c-0.1,3.2-2.5,5.5-5.6,5.5c-3-0.1-5.2-2.4-5.2-5.6
		c0-4.4,0-8.7,0-13.1C154.9,56.7,155,56.7,155.1,56.7z"/>
	<path d="M164.7,14.7c0,1.3-0.1,2.7,0,4c0,0.4,0.6,0.8,0.9,1.2c-0.9,0-2,0-3,0c0.2-0.8,0.5-1.7,0.5-2.5c0.1-2.7,0.1-5.4,0-8
		c0-0.8,0.1-1.7-1.2-1.7c0-0.1,0.1-0.2,0.1-0.4c2.2,0.2,4.4,0.1,6.5,0.6c1.9,0.4,2.5,2.6,1.5,4.4c-0.4,0.7-1,1.3-1.6,2.2
		c1.3,1.5,2.6,3.1,4.1,4.6c1,1,1.8,0.8,2.3-0.6c1.3-3.3,2.6-6.7,3.9-10c0.2-0.4,0.3-0.8,0.6-1.4c0.3,0.6,0.5,1,0.7,1.3
		c1.3,3.1,2.5,6.2,3.8,9.3c0.4,1,0.9,2.1,2.1,2.4c-1,0-2,0-2.9,0c-0.5-1.4-1-2.7-1.6-4c-0.1-0.3-0.7-0.6-1.1-0.6
		c-1.2,0.2-2.6-0.6-3.5,0.5c-0.6,0.8-0.8,1.9-1.1,2.9c-0.1,0.3,0.1,0.8,0.2,1.2c0,0-0.1,0-0.2,0c-4.8,0-4.9,0-7.8-4
		C167.2,14.6,166.1,14.4,164.7,14.7z M164.6,10.8C164.6,10.8,164.6,10.8,164.6,10.8c0,0.7,0,1.4,0,2.2c0,0.3,0.1,0.7,0.3,0.8
		c0.6,0.5,2.8,0.2,3.3-0.4c0.9-1.1,0.9-2.4,0.5-3.7c-0.4-1.2-1.3-1.7-2.6-1.8c-1.4-0.1-1.5,0-1.5,1.5
		C164.6,9.9,164.6,10.4,164.6,10.8z M179.3,9.9c-0.1,0-0.2,0-0.3,0c-0.5,1.5-1.1,3-1.6,4.6c1.3,0,2.4,0,3.7,0
		C180.5,12.9,179.9,11.4,179.3,9.9z"/>
	<path d="M104.4,7.3c0.9,0,1.9,0,2.9,0c-0.2,0.5-0.6,1-0.6,1.4c0,3.3,0,6.6,0.1,9.8c0,0.4,0.6,0.9,0.8,1.3c-1.9,0-4.1,0.1-6.2-0.1
		c-0.7,0-1.4-0.6-1.9-1.1c-0.8-0.8-1.6-1.7-2.2-2.7c-0.8-1.4-2-1.7-3.5-1.3c0,1.3-0.1,2.7,0.1,4c0,0.4,0.7,0.8,1,1.1
		c-1,0-2.2,0-3.2,0c0.2-0.6,0.4-1.3,0.4-1.9c0.1-3,0.1-6.1,0-9.1c0-0.5-0.5-1-0.7-1.5c1.5,0,3.3-0.1,5.1,0c3.1,0.2,3.8,3.2,2.3,5.2
		c-1.2,1.7-1.2,1.7,0.2,3.3c0.7,0.8,1.3,1.6,2,2.4c0.4,0.4,0.9,0.8,1.4,1.1c1.6,0.8,2.5,0.3,2.5-1.5c0.1-3,0.1-6,0-9
		C105.1,8.4,104.7,7.9,104.4,7.3z M93.8,10.9C93.8,10.9,93.8,10.9,93.8,10.9c0,0.7,0,1.4,0,2.2c0,0.3,0.2,0.8,0.4,0.8
		c1,0,2.3,0.2,3.1-0.3c1.2-0.8,1.1-2.2,0.8-3.5c-0.3-1.2-1.1-1.8-2.3-2c-1.7-0.3-2,0-2,1.6C93.8,10,93.8,10.5,93.8,10.9z"/>
	<path d="M155.1,12.6c1.3,0,2.6,0,3.6,0c-0.2,0.6-0.7,1.3-0.7,1.9c-0.1,1.2-0.1,2.5,0,3.7c0,0.7-0.3,1.2-1,1.4
		c-2.9,0.8-5.7,0.8-8.4-0.5c-3-1.5-4.4-5-3.6-8.6c0.8-3.4,3.5-5.6,7.1-5.7c1.9,0,3.9,0.2,6,0.4c-0.1,1.1-0.1,2.1-0.2,3
		c-0.6-1.9-2.1-2.4-3.7-2.6c-1.1-0.1-2.2-0.1-3.3,0c-1.8,0.3-3.1,1.3-3.8,3c-1.1,2.9-0.8,5.6,1,8.1c1.7,2.2,4,2.9,6.7,2.6
		c1.1-0.1,1.6-0.6,1.5-1.7c-0.1-1,0-2.1,0-3.1C156.4,13.6,156.1,12.9,155.1,12.6z"/>
	<path d="M111.7,19.9c0.2-0.5,0.6-1.1,0.6-1.7c0.1-3.1,0.1-6.2,0-9.3c0-0.5-0.5-1-0.7-1.3c2.3,0,5-0.3,7.6,0.1
		c3.2,0.4,5,2.9,4.9,6.1c-0.1,3.1-2.2,5.7-5.3,6.2c-0.8,0.1-1.7,0.2-2.5,0.2C114.7,20,113.1,19.9,111.7,19.9z M113.9,13.3
		C113.9,13.3,113.9,13.3,113.9,13.3c0,1.1,0,2.2,0,3.2c0,0.1,0,0.2,0,0.2c0,2.3,0.3,2.6,2.7,2.6c3,0.1,5.1-1.3,5.7-3.9
		c1-4.7-2.8-8.6-7.5-7.6C114.4,8,114,8.6,114,8.9C113.9,10.4,113.9,11.9,113.9,13.3z"/>
	<path d="M204,19.9c0.2-0.5,0.5-0.9,0.6-1.3c0.1-3.3,0.1-6.5,0.1-9.8c0-0.5-0.6-0.9-1-1.5c2.6,0.1,5.3,0.1,8,0.5
		c2.9,0.4,4.6,2.7,4.8,5.4c0.2,3.1-1.5,5.8-4.3,6.6c-1.4,0.4-3,0.4-4.5,0.4C206.4,20.1,205.2,19.9,204,19.9z M208.2,7.9
		c-1.6-0.1-1.9,0.1-2,1c0,2.7,0,5.4,0,8.1c0.1,2,0.4,2.3,2.4,2.4c0.7,0,1.5,0,2.2-0.2c2-0.5,3.3-1.7,3.7-3.8
		C215.5,11.2,212.9,8.1,208.2,7.9z"/>
	<path d="M189.5,10.1c0,3,0,5.8,0,8.5c0,0.4,0.6,0.8,0.9,1.2c-0.9,0-2,0-3.4,0c1.4-0.4,1.3-1.4,1.3-2.2c0-3,0-5.9,0-8.9
		c0-0.5,0-1,0-1.5c0.1-0.1,0.2-0.1,0.4-0.2c3.3,3.4,6.5,6.8,10,10.4c0-0.9,0-1.4,0-2c0-2.1-0.1-4.2-0.1-6.3c0-1.2-0.1-1.3-1.6-1.7
		c1.4,0,2.5,0,3.2,0c-0.2,0.6-0.6,1.2-0.6,1.8c-0.1,3.1,0,6.2,0,9.3c0,0.5,0,0.9-0.1,1.6C196.2,16.7,192.9,13.5,189.5,10.1z"/>
	<path d="M82.3,20.1c-3.9,0-6.7-2.7-6.7-6.6c0-3.6,3-6.6,6.9-6.5c4,0,6.8,2.6,6.8,6.3C89.3,17.3,86.3,20.1,82.3,20.1z M87.8,13.9
		c-0.4-1.3-0.7-2.7-1.3-3.9c-1-1.9-2.8-2.5-4.9-2.2c-2.1,0.3-3.5,1.5-4,3.6c-0.5,2.5-0.3,5,1.8,6.8c1.5,1.4,3.4,1.7,5.3,0.9
		C86.9,18.1,87.5,16.2,87.8,13.9z"/>
	<path d="M56.3,5.1c2.4,0,5.1,0,7.9,0c-0.1,0.7-0.1,1.3-0.2,1.7c-0.7-0.3-1.5-0.8-2.3-0.9c-0.8-0.2-1.7,0-2.7,0c0,1.9,0,3.7,0,5.6
		c1.5,0,3,0,4.6,0c-0.1,0.6-0.1,1.3-0.2,2.1c-0.7-1-3.2-1.7-4.1-1.2c-0.2,0.1-0.3,0.4-0.3,0.7c0,1.6,0,3.1,0,4.7c0,1,0.1,2,1.5,2.1
		c-1.3,0-2.7,0-3.8,0c0.2-0.6,0.6-1.3,0.6-1.9c0.1-3.8,0.1-7.5,0-11.3C57.3,6.2,56.7,5.6,56.3,5.1z"/>
	<path d="M130.9,6.7c0.6,1.4,1,2.4,1.5,3.5c1,2.5,2,5.1,3.2,7.6c0.3,0.8,1,1.4,1.5,2c-0.6,0-1.6,0-2.4,0c-0.5-1.4-1-2.7-1.6-4.1
		c-0.3-0.6-4.2-0.8-4.4-0.2c-0.5,1.1-0.9,2.3-1.2,3.5c-0.1,0.2,0.3,0.5,0.4,0.8c-0.5,0-1,0-1.5,0c-0.5,0-1,0-1.2,0
		c0.4-0.6,1.1-1.3,1.4-2.1c1.3-3.2,2.5-6.4,3.8-9.6C130.4,7.8,130.6,7.5,130.9,6.7z M128.8,14.6c1.3,0,2.4,0,3.7,0
		c-0.6-1.6-1.2-3.1-1.7-4.6c-0.1,0-0.2,0-0.3,0C130,11.4,129.4,12.9,128.8,14.6z"/>
	<path d="M67.1,7.3c0.9,0,2,0,3,0c-0.2,0.5-0.6,1.1-0.6,1.7c-0.1,2.7-0.1,5.4,0,8.2c0,1.8,0.3,2,2.1,2.1c1.3,0.1,2.6,0.2,3.2-1.7
		c0,2.2-0.1,2.4-2,2.4c-1.9,0-3.8,0-5.6,0c0.2-0.6,0.5-1,0.5-1.5c0.1-3.2,0.1-6.5,0-9.7C67.7,8.3,67.3,7.8,67.1,7.3z"/>
	<path class="st0" d="M67.7,53.9c0-3.4,0-6.7,0-10.1c0-0.9,0.2-1.3,1.2-1.2c2.5,0.2,5.2,0,7.6,0.6c5,1.2,8.5,5.6,8.4,10.2
		c-0.2,5-2.8,8.5-7.1,10.8c-3.1,1.6-6.4,1.8-9.8,1.1c-0.8-0.2-0.7-0.7-0.7-1.2c0-3.4,0-6.8,0-10.2C67.4,53.9,67.5,53.9,67.7,53.9z"
		/>
	<path class="st0" d="M34.8,53.2c0,6.8-5.6,12.4-12.5,12.5c-6.4,0-11.5-5.1-11.6-11.6c0-6.7,5.8-12.4,12.6-12.4
		C29.8,41.7,34.8,46.8,34.8,53.2z"/>
	<path class="st0" d="M208,61.6c0,1.1,0.1,2.2,0,3.3c0,0.3-0.5,0.8-0.8,0.8c-2.2,0.1-4.5,0.1-6.7,0c-1.6-0.1-2.9-0.8-3.8-2.2
		c-1.6-2.5-0.3-5.5,2.8-5.9c2.6-0.3,5.3-0.2,8-0.2c0.2,0,0.6,0.5,0.6,0.8c0.1,1.1,0,2.2,0,3.3C208.1,61.6,208.1,61.6,208,61.6z"/>
	<path class="st0" d="M114.1,49.3c1.7-5.2,5.9-9,11.5-8.5c4.1,0.4,8.2,4.3,8.6,8.5C127.5,49.3,120.8,49.3,114.1,49.3z"/>
	<path class="st0" d="M164.6,10.8c0-0.5,0-1,0-1.4c0-1.5,0.1-1.6,1.5-1.5c1.2,0.1,2.1,0.6,2.6,1.8c0.5,1.3,0.4,2.6-0.5,3.7
		c-0.5,0.6-2.7,0.8-3.3,0.4c-0.2-0.2-0.3-0.5-0.3-0.8C164.6,12.3,164.6,11.6,164.6,10.8C164.6,10.8,164.6,10.8,164.6,10.8z"/>
	<path class="st0" d="M179.3,9.9c0.6,1.5,1.1,3,1.7,4.6c-1.3,0-2.3,0-3.7,0c0.6-1.6,1.1-3.1,1.6-4.6C179.1,9.9,179.2,9.9,179.3,9.9z
		"/>
	<path class="st0" d="M93.8,10.9c0-0.4,0-0.9,0-1.3c0-1.7,0.3-2,2-1.6c1.2,0.2,2,0.9,2.3,2c0.3,1.3,0.4,2.8-0.8,3.5
		c-0.8,0.5-2,0.3-3.1,0.3c-0.1,0-0.3-0.5-0.4-0.8C93.7,12.3,93.8,11.6,93.8,10.9C93.8,10.9,93.8,10.9,93.8,10.9z"/>
	<path class="st0" d="M113.9,13.3c0-1.5,0-3,0-4.4c0-0.3,0.4-0.9,0.8-0.9c4.8-1,8.6,2.9,7.5,7.6c-0.6,2.6-2.6,4-5.7,3.9
		c-2.3-0.1-2.6-0.4-2.7-2.6c0-0.1,0-0.2,0-0.2C113.9,15.5,113.9,14.4,113.9,13.3C113.9,13.3,113.9,13.3,113.9,13.3z"/>
	<path class="st0" d="M208.2,7.9c4.7,0.2,7.3,3.2,6.4,7.6c-0.4,2.1-1.7,3.3-3.7,3.8c-0.7,0.2-1.5,0.2-2.2,0.2
		c-2-0.1-2.3-0.3-2.4-2.4c-0.1-2.7-0.1-5.4,0-8.1C206.2,8,206.5,7.8,208.2,7.9z"/>
	<path class="st0" d="M87.8,13.9c-0.3,2.3-0.9,4.3-3.1,5.2c-1.9,0.8-3.8,0.5-5.3-0.9c-2-1.9-2.3-4.3-1.8-6.8c0.4-2.1,1.9-3.3,4-3.6
		c2.1-0.3,3.9,0.4,4.9,2.2C87.1,11.2,87.4,12.6,87.8,13.9z"/>
	<path class="st0" d="M128.8,14.6c0.6-1.7,1.1-3.1,1.7-4.6c0.1,0,0.2,0,0.3,0c0.6,1.5,1.1,3,1.7,4.6
		C131.2,14.6,130.2,14.6,128.8,14.6z"/>
</g>
</svg>
