<?xml version="1.0" encoding="iso-8859-1"?>
<!-- Generator: Adobe Illustrator 19.2.1, SVG Export Plug-In . SVG Version: 6.00 Build 0)  -->
<svg version="1.1"
	 id="svg2" xmlns:cc="http://creativecommons.org/ns#" xmlns:dc="http://purl.org/dc/elements/1.1/" xmlns:rdf="http://www.w3.org/1999/02/22-rdf-syntax-ns#" xmlns:svg="http://www.w3.org/2000/svg"
	 xmlns="http://www.w3.org/2000/svg" xmlns:xlink="http://www.w3.org/1999/xlink" x="0px" y="0px" viewBox="0 0 966 344"
	 style="enable-background:new 0 0 966 344;" xml:space="preserve">

<g id="g10" transform="matrix(1.3333333,0,0,-1.3333333,0,525.14667)">
	<g id="g12" transform="scale(0.1)">
		<g id="g14">
			<g>
				<defs>
					<rect id="SVGID_1_" x="3393.4" y="1706.7" width="1044.1" height="525.2"/>
				</defs>
				<clipPath id="SVGID_2_">
					<use xlink:href="#SVGID_1_"  style="overflow:visible;"/>
				</clipPath>
				<g id="g16" class="st1">
					<path id="path22" class="st1" d="M3748.8,3886.8c0,14.7,6.1,25.6,18.5,32.6c12.4,6.9,26.9,10.4,43.8,10.4
						c14.7,0,28.8-3.5,42.2-10.4c13.3-7,20-17.8,20-32.6v-726.2c0-59.2-8.4-109.4-25.2-150.4c-16.9-41.1-39.8-74.4-69-100
						c-29.1-25.7-63.5-44.3-102.9-55.6c-39.6-11.3-82-17.1-127.5-17.1c-45.4,0-87.9,5.7-127.4,17.1c-39.6,11.3-73.7,29.9-102.3,55.6
						c-28.6,25.6-51.4,58.9-68.2,100c-16.8,41-25.2,91.1-25.2,150.4v726.2c0,14.7,6.5,25.6,19.3,32.6c12.9,6.9,27.2,10.4,43,10.4
						c15.8,0,30.1-3.5,43-10.4c12.8-7,19.2-17.8,19.2-32.6v-726.2c0-72.1,17.5-125.2,52.6-159.4c35-34,83.7-51.1,145.9-51.1
						c62.3,0,111.1,17.1,146.7,51.1c35.6,34.1,53.4,87.2,53.4,159.4V3886.8"/>
					<path id="path24" class="st1" d="M4226,3817.1v-386.7h191.1c61.2,0,110.6,14.8,148.1,44.4c37.6,29.6,56.3,79.5,56.3,149.7
						c0,69.1-18.7,118.5-56.3,148.1c-37.5,29.6-86.9,44.4-148.1,44.4H4226z M4101.5,3886.8c0,10.7,3.9,20.5,11.9,28.9
						c7.9,8.4,18.7,13.1,32.6,14.1h271.2c44.5,0,86.7-5,126.7-14.8c39.9-9.9,75-26.2,105.2-48.9c30.1-22.6,53.8-53.1,71.1-91.1
						c17.2-38.1,25.9-85.2,25.9-141.5c0-45.4-5.8-84.7-17.1-117.8c-11.4-33.2-26.9-61.3-46.7-84.5c-19.7-23.2-43.3-42-70.4-56.3
						c-27.1-14.3-56.1-24.4-86.6-30.2l219.3-416.6c3.9-6.8,5.9-13.8,5.9-20.6c0-16.9-8-31.7-23.7-44.4
						c-15.8-12.9-32.6-19.3-50.5-19.3c-12.8,0-23.7,4.8-32.6,14.8c-8.9,9.7-16.9,21.2-23.8,34.1l-223.7,434.2H4226V2891
						c0-14.9-6.5-25.9-19.2-33.4c-12.9-7.4-27.2-11.1-43-11.1c-15.9,0-30.1,3.8-43,11.1c-12.8,7.4-19.3,18.5-19.3,33.4V3886.8"/>
					<path id="path26" class="st1" d="M5253,2959.1c59.3,0,105.7,16,139.3,48.2c33.5,32.1,50.4,83.7,50.4,154.9v25.2
						c0,71.1-16.9,121.2-50.4,150.4c-33.6,29.1-80,43.7-139.3,43.7h-200v-422.3L5253,2959.1L5253,2959.1z M5052.9,3485.2h185.2
						c60.2,0,105,13.4,134.1,40c29.2,26.7,43.8,71.1,43.8,133.4c0,29.6-4.5,54.5-13.4,74.8c-8.9,20.2-21.2,36.5-37.1,48.9
						c-15.7,12.3-35,21.3-57.8,26.7c-22.7,5.4-47.5,8.1-74.1,8.1h-180.8L5052.9,3485.2L5052.9,3485.2z M4928.4,3885.2
						c0,14.9,6,26,17.8,33.4c11.9,7.4,24.7,11.1,38.4,11.1h254.9c40.5,0,79.1-3.5,115.6-10.4c36.5-7,68.4-19.7,95.6-38.5
						s48.9-44.7,65.2-77.8c16.3-33.1,24.4-75.3,24.4-126.7c0-62.2-11.3-114.1-34.1-155.6c-22.8-41.6-53.4-70.7-91.9-87.4
						c22.7-8.9,43.5-19.9,62.3-33.3c18.7-13.4,34.8-29.9,48.1-49.7c13.4-19.8,23.7-43.4,31.2-71.1c7.4-27.6,11.1-60.3,11.1-97.8
						v-26.7c0-56.3-7.7-104.2-22.9-143.8c-15.4-39.5-36.1-71.3-62.3-95.5c-26.2-24.3-57.1-41.8-92.6-52.5
						c-35.7-11-74.1-16.4-115.6-16.4h-289c-16.7,0-30.3,4.4-40.7,13.4c-10.4,8.8-15.6,18.7-15.6,29.6L4928.4,3885.2"/>
					<path id="path28" class="st1" d="M6225.1,3197.7l-164.5,557.2l-167.4-557.2H6225.1L6225.1,3197.7z M5753.8,2846.5
						c-16.8,0-33.5,4.7-50.3,14.1c-16.9,9.3-25.2,22-25.2,37.8c0,2,1,5.9,3,11.9l302.3,985.4c5,14.7,14.8,25.7,29.7,32.6
						c14.8,6.9,30.6,10.4,47.4,10.4c16.8,0,32.6-3.7,47.5-11.1c14.8-7.4,24.7-18.1,29.6-31.8l302.3-985.4c0-2.1,0.3-3.8,0.7-5.2
						c0.5-1.6,0.8-3.2,0.8-5.3c0-14.8-8.4-27.4-25.2-37.8c-16.8-10.4-34.1-15.6-51.8-15.6c-11,0-20.3,2.3-28.2,6.7
						c-8,4.4-13.4,11.6-16.3,21.5l-65.3,220.8h-389.7l-65.1-220.8C5793.8,2855.8,5778.4,2846.5,5753.8,2846.5"/>
					<path id="path30" class="st1" d="M7170.3,2846.5c-16.9,0-31.9,5.2-45.3,15.6c-13.3,10.4-24.4,24-33.3,40.8l-385.3,745.4V2891
						c0-14.9-6.5-25.9-19.2-33.4c-12.9-7.4-27.3-11.1-43-11.1c-15.9,0-30.2,3.8-43,11.1c-12.8,7.4-19.2,18.5-19.2,33.4v995.8
						c0,15.8,6.2,26.8,18.5,33.2c12.3,6.5,26.9,9.7,43.8,9.7c22.7,0,40.7-6.6,54-19.9c13.3-13.4,27-32.9,40.7-58.6l369-721.6v757.3
						c0,14.7,6.4,25.6,19.3,32.6c12.8,6.9,27.2,10.4,43,10.4c15.7,0,30.1-3.5,42.9-10.4c12.9-7,19.2-17.8,19.2-32.6V2891
						c0-14.9-6.4-25.9-19.2-33.4C7200.3,2850.3,7186,2846.5,7170.3,2846.5"/>
					<path id="path32" class="st1" d="M2991.2,1586.6c20.7,0,38.5-7.7,53.3-23c14.8-15.3,22.2-33.8,22.2-55.5
						c0-19.8-7.4-37.6-22.2-53.4c-14.8-15.8-32.6-23.7-53.3-23.7c-22.8,0-41.3,7.9-55.6,23.7c-14.3,15.8-21.5,33.5-21.5,53.4
						c0,21.8,7.2,40.2,21.5,55.5C2950,1578.9,2968.5,1586.6,2991.2,1586.6"/>
					<path id="path34" class="st1" d="M3754.4,2480.2c0,14.7,6.2,25.6,18.6,32.6c12.2,6.8,26.8,10.4,43.7,10.4
						c14.8,0,28.9-3.5,42.3-10.4c13.3-7,20-17.9,20-32.6V1754c0-59.2-8.4-109.4-25.2-150.4c-16.8-41.1-39.8-74.4-68.9-100.1
						c-29.1-25.7-63.5-44.2-102.9-55.5c-39.6-11.4-82-17.1-127.5-17.1c-45.4,0-88,5.7-127.4,17.1c-39.5,11.3-73.6,29.8-102.3,55.5
						c-28.6,25.7-51.4,59-68.1,100.1c-16.8,41-25.2,91.2-25.2,150.4v726.2c0,14.7,6.4,25.6,19.3,32.6c12.9,6.8,27.2,10.4,43,10.4
						c15.7,0,30.1-3.5,42.9-10.4c12.9-7,19.3-17.9,19.3-32.6V1754c0-72.1,17.5-125.2,52.5-159.3c35.1-34,83.8-51.1,146-51.1
						c62.3,0,111.1,17.1,146.7,51.1c35.5,34.1,53.3,87.2,53.3,159.3L3754.4,2480.2"/>
					<path id="path36" class="st1" d="M4388.5,1543.6c62.3,0,112.2,15,149.7,45.2c37.5,30.1,56.2,76.3,56.2,138.5
						c0,49.4-11.9,88.3-36.2,117.1c-24.2,28.6-54.4,52.3-90.4,71.1c-36.1,18.7-75,35.6-117.1,50.4c-42,14.9-81,33.4-117.1,55.7
						c-36,22.1-66.2,50.8-90.4,85.9c-24.2,35.1-36.3,82.7-36.3,143c0,54.3,10.2,99.3,30.4,134.8c20.2,35.6,46.2,63.8,77.8,84.5
						c31.6,20.7,66.6,35.2,105.3,43.6c38.5,8.4,76,12.6,112.6,12.6c26.7,0,55-2,85.2-5.9c30.1-4,58-9.9,83.7-17.8
						c25.7-7.9,47.2-18,64.5-30.4c17.2-12.4,25.9-26.9,25.9-43.7c0-11.9-4.7-26.1-14.1-43c-9.4-16.8-22.5-25.1-39.2-25.1
						c-8.9,0-18.5,2.9-28.9,8.9c-10.4,5.9-23.2,12.3-38.6,19.2c-15.3,6.9-34.1,13.3-56.3,19.2c-22.3,5.9-49.6,8.9-82.2,8.9
						c-27.7,0-53.6-2.8-77.9-8.1c-24.2-5.5-45.4-14.1-63.6-25.9c-18.3-11.9-33-27.7-43.8-47.5c-10.9-19.7-16.4-43.9-16.4-72.6
						c0-41.4,12.1-74.1,36.4-97.8c24.2-23.6,54.2-43.6,90.4-59.9c36-16.3,75-31.9,117.1-46.7c42-14.8,81-34.6,117-59.3
						c36.1-24.7,66.2-57.3,90.4-97.8c24.2-40.5,36.4-94.4,36.4-161.5c0-53.3-8.2-99.6-24.5-138.6c-16.3-39-38.8-71.3-67.4-97.1
						c-28.7-25.7-62.9-44.6-102.3-57c-39.5-12.3-83-18.6-130.4-18.6c-47.4,0-90.7,5.7-129.7,17.1c-39,11.4-72.1,25.7-99.3,42.9
						c-27.1,17.4-48.1,35.6-62.9,54.8c-14.8,19.2-22.3,36.8-22.3,52.6c0,14.9,5.7,29.9,17.1,45.2c11.3,15.3,23.9,23,37.8,23
						c10.8,0,21.9-6.2,33.3-18.6c11.4-12.3,26.2-26.1,44.5-41.4c18.4-15.3,41.2-29.2,68.9-41.6
						C4309.5,1549.7,4345,1543.6,4388.5,1543.6"/>
					<path id="path98" class="st1" d="M372.4,3562.5c0,0,0-883.7,0-1019c0-323.8,310.5-731.5,787.1-731.5
						c186.1,0,276.2,56.2,352.3,102.9c-300.3,35-538.4,303.5-538.4,595.6c0,185.7,0,1052,0,1052H372.4 M1346.9,3562.3
						c0,0,0-903.9,0-985.1c0-157.6,129.5-292.9,301.5-292.9s301.5,131.2,301.5,292.9c0,55.3,0,985.1,0,985.1H1346.9z M2317.7,3931.3
						c0,0,0-1157.7,0-1370.2c0-621.8-497.7-1125.9-1158.9-1125.9C497.6,1435.2,0,1955.3,0,2561.1c0,311.9,0,1370.2,0,1370.2H2317.7"
						/>
				</g>
			</g>
		</g>
	</g>
</g>
</svg>
