<?xml version="1.0" encoding="utf-8"?>
<!-- Generator: Adobe Illustrator 19.2.1, SVG Export Plug-In . SVG Version: 6.00 Build 0)  -->
<svg version="1.1" id="Layer_1" xmlns="http://www.w3.org/2000/svg" xmlns:xlink="http://www.w3.org/1999/xlink" x="0px" y="0px"
	 viewBox="0 0 506 375.2" style="enable-background:new 0 0 506 375.2;" xml:space="preserve">
<style type="text/css">
	.st0{fill:#FFFFFF;}
</style>
<g>
	<path class="st0" d="M-106.6,425.3c0-157,0-313.9,0-470.9c240,0,480,0,720,0c0,157,0,313.9,0,470.9
		C373.4,425.3,133.4,425.3-106.6,425.3z M360.1,107.1C360.1,48,312.3,0.1,253.2,0C194-0.1,146,47.8,145.9,106.8
		c-0.1,59.3,47.8,107.3,106.9,107.4C312.1,214.2,360,166.4,360.1,107.1z M6.6,254.6c-3-0.4-4.5-0.3-6.2,0.2c0,22.7,0,45.4,0,68.3
		c1.9,0,3.7-0.1,5.4,0c2.1,0.2,3.3-0.5,4.4-2.4C21,303.4,31.9,286.2,42.8,269c0.4-0.7,0.9-1.4,1.4-2c0.1,0.1,0.3,0.1,0.4,0.2
		c0,6.2,0,12.5,0,18.7c0,6.2,0,12.3,0,18.5c0,6.2-0.1,12.4,0.1,18.7c2.3,0,4.3-0.1,6.3,0c1.5,0.1,2.3-0.5,3.1-1.7
		c13.7-21.7,27.4-43.4,41.1-65.1c0.3-0.5,0.5-1.1,0.9-1.9c-1.7,0-3,0.1-4.4,0c-2.1-0.3-3.3,0.6-4.4,2.4
		c-11.5,18.4-23.1,36.7-34.7,55c-0.4,0.7-0.9,1.3-1.4,2c-0.2-0.1-0.3-0.1-0.5-0.2c0-19.6,0-39.3,0-59.1c-1.3,0-2.3,0.1-3.3,0
		c-2.2-0.3-3.4,0.6-4.6,2.5C31.5,275,20,293.2,8.5,311.4c-0.5,0.8-1,1.5-1.5,2.2c-0.2-0.1-0.3-0.1-0.5-0.2
		C6.6,293.9,6.6,274.3,6.6,254.6z M215.1,310.5c-0.2,0-0.4,0.1-0.5,0.1c-0.5-0.7-0.9-1.4-1.4-2.2c-6.6-11-13.1-22-19.7-32.9
		c-3.9-6.5-7.7-12.9-11.6-19.4c-0.4-0.7-0.7-1.7-1.8-1.7c-2,0-3.9,0-5.9,0c0,23,0,45.7,0,68.5c2.1,0,4,0,5.9,0
		c0.1-0.2,0.2-0.3,0.2-0.4c0-0.2,0.1-0.3,0.1-0.5c0-17.8,0-35.7,0-53.5c0-0.3,0-0.6,0-1c0-0.2,0-0.3,0.1-0.5c0-0.1,0.1-0.1,0.2-0.1
		c0.1,0,0.1,0,0.3,0c0.4,0.6,0.8,1.3,1.2,2c8.9,14.8,17.7,29.6,26.6,44.5c1.7,2.8,3.3,5.6,5.1,8.4c0.3,0.5,1,1.2,1.6,1.2
		c1.9,0.1,3.8,0.1,5.6,0.1c0.5-3.3,0.4-66.8-0.1-68.5c-1.9,0-3.8,0-5.9,0C215.1,273.2,215.1,291.9,215.1,310.5z M344,253.7
		c-19.8-0.2-35.1,16.8-35.1,35.1c0,19,16.4,35.1,35.3,35c17.9-0.1,35-15.1,34.9-35.1C379,269.2,363.5,253.6,344,253.7z M399.3,322.8
		c0.5,0.1,0.8,0.2,1.1,0.2c5.7,0,11.4,0.1,17,0c3.6-0.1,7.1-0.8,10.5-2c16.2-6,25.3-23.4,21.5-40.3c-2.9-12.7-15.5-26.2-32.4-26.3
		c-5.4,0-10.9,0-16.3,0c-0.5,0-0.9,0.1-1.5,0.1C399.3,277.3,399.3,300,399.3,322.8z M505.7,322.9c0-2.2,0-4.1,0-6.3
		c-9.6,0-19,0-28.4,0c0-8.4,0-16.5,0-24.9c7.5,0,14.9,0,22.4,0c0.1-2.2,0.3-4.2-0.2-6.3c-3.8,0-7.4,0-11.1,0
		c-3.7,0-7.4,0.1-11.1-0.1c0-8.4,0-16.4,0-24.7c9.6,0,19,0,28.4,0c0-2.2,0-4.1,0-6.1c-11.7,0-23.1,0-34.6,0
		c-0.5,3.3-0.3,66.6,0.2,68.4C482.6,322.9,494,322.9,505.7,322.9z M292.1,312.7c-4.4,2.6-8.6,4.2-13.2,4.5
		c-4.7,0.4-9.2-0.3-13.6-2.1c-4.3-1.8-7.8-4.6-10.8-8.1c-7.8-9.1-8.9-22.8-2.7-32.9c3.3-5.3,7.7-9.5,13.5-11.8
		c9.1-3.8,18.1-2.8,26.8,2.2c0-2.6,0-4.8,0-7c-0.6-0.3-1.2-0.7-1.8-0.9c-6.4-2.7-13.1-3.4-20-2.3c-16,2.6-32.6,19.2-28,41.7
		c3.6,17.6,20.2,29.6,38,27.6c3.5-0.4,6.9-1.3,10.2-2.7c1.3-0.5,1.8-1.3,1.7-2.7C292,316.5,292.1,314.9,292.1,312.7z M106.6,254.4
		c0.6,1.1,1,1.8,1.4,2.5c6.1,10.4,12.2,20.8,18.4,31.2c0.8,1.4,1.3,2.8,1.3,4.5c-0.1,9.3,0,18.5,0,27.8c0,0.8,0.1,1.7,0.1,2.5
		c2.2,0,4.1,0,6.2,0c0-1,0-1.9,0-2.7c0-9.2,0-18.4,0-27.6c0-1.7,0.4-3.1,1.3-4.5c6.2-10.4,12.3-20.8,18.4-31.2
		c0.4-0.7,0.8-1.5,1.4-2.5c-2,0-3.5,0.1-5,0c-1.7-0.2-2.6,0.5-3.4,2c-4.7,8.2-9.5,16.3-14.3,24.4c-0.4,0.7-0.9,1.4-1.5,2.3
		c-1.1-1.9-2.1-3.5-3-5.1c-4.3-7.3-8.6-14.6-12.9-21.9c-0.5-0.8-0.8-1.7-2-1.7C110.9,254.4,109,254.4,106.6,254.4z M172.1,374.6
		c0.9-0.1,1.5-0.1,2.3-0.2c0-2.4,0-4.5,0-6.7c0-2.1-0.2-4.3,0.2-6.5c2.8,0,5.4,0.1,7.9,0c1.8-0.1,3,0.4,4,1.9
		c2.5,3.4,5.2,6.7,7.7,10.1c1,1.4,2.1,1.7,3.9,1.1c-3.4-4.5-6.8-8.8-10.2-13.3c1.6-0.6,2.9-0.9,4.1-1.5c3.4-1.6,5.2-4.2,5.2-7.9
		c0-3.7-1.7-6.5-5.1-7.9c-1.9-0.8-4-1.2-6-1.3c-4.1-0.2-8.2-0.1-12.2-0.1c-0.5,0-1.1,0.1-1.7,0.2
		C172.1,353.1,172.1,363.6,172.1,374.6z M442.1,374.4c4.8,0,9.4,0.4,13.9-0.1c9.7-1.1,15.8-10.2,13.6-19.7
		c-1.7-7.1-7.8-12-15.5-12.3c-3.6-0.1-7.2,0-10.8,0c-0.4,0-0.7,0.2-1.1,0.2C442.1,353.2,442.1,363.7,442.1,374.4z M412.9,341.7
		c-9.3,0-16.4,7.3-16.4,16.8c0,9.4,7,16.6,16.2,16.7c9.3,0.1,16.5-7.3,16.4-16.9C429.1,348.8,422.1,341.7,412.9,341.7z M277.6,341.7
		c-9.3,0-16.3,7.3-16.4,16.8c0,9.5,7.1,16.8,16.4,16.7c9.3-0.1,16.2-7.3,16.2-16.9C293.8,348.8,286.9,341.7,277.6,341.7z
		 M76.8,342.4c-0.5,6.7-0.2,30.3,0.3,32.2c7.5,0,15.1,0.1,22.6,0c0-0.8,0-1.4,0-2.2c-6.9,0-13.6,0-20.3,0c-0.5-3-0.4-11.2,0.2-13
		c5.9,0,11.9,0,17.9,0c0-0.8,0-1.4,0-2.3c-6.2,0-12.2,0-18.2,0c0-4.3,0-8.4,0-12.6c6.9,0,13.6,0,20.3,0c0-0.8,0-1.4,0-2.1
		C92,342.4,84.5,342.4,76.8,342.4z M505.7,342.4c-7.6,0-15.2,0-22.8,0c0,10.7,0,21.3,0,31.9c2.9,0.5,21.3,0.4,23-0.1
		c0-0.5-0.1-1-0.1-1.8c-6.9,0-13.7,0-20.4,0c-0.5-3-0.4-11.1,0.2-13c5.9,0,11.9,0,17.9,0c0-0.8,0-1.4,0-2.3c-6.2,0-12.2,0-18.2,0
		c0-4.3,0-8.3,0-12.5c6.9-0.2,13.6,0.1,20.4-0.2C505.7,343.6,505.7,343,505.7,342.4z M37.1,342.3c0,10.9,0,21.5,0,32.3
		c0.8-0.1,1.5-0.1,2.3-0.2c0-5,0-9.9,0-14.9c7,0.1,13.7-0.1,20.7,0.1c0,5.1,0,10,0,14.8c0.5,0.1,0.9,0.2,1.2,0.2
		c0.3,0,0.6-0.1,1-0.1c0-10.7,0-21.4,0-32.2c-0.8,0.1-1.4,0.1-2.3,0.1c0,4.9,0,9.8,0,14.8c-7-0.1-13.8,0.1-20.7-0.1
		c0-5,0-9.8,0-14.7C38.5,342.4,37.9,342.3,37.1,342.3z M160.2,374.3c-0.1-0.4-0.2-0.8-0.4-1.1c-4.6-9.9-9.1-19.7-13.7-29.6
		c-0.8-1.6-0.8-1.6-3.2-1.3c-4.9,10.6-9.8,21.3-14.8,32.1c2.3,0.3,2.4,0.3,3.1-1.3c0.9-2,1.9-4.1,2.7-6.1c0.4-1,1.1-1.4,2.2-1.4
		c5.4,0,10.7,0,16.1,0c1.1,0,1.7,0.4,2.2,1.4c0.9,2.1,1.8,4.1,2.8,6.1C158,374.8,158,374.8,160.2,374.3z M387.4,347
		c-6.3-6.9-18-7-24.2-0.2c-6.4,7-5.8,18.5,1.2,24.6c6.6,5.8,17.8,4.8,23.1-1.9c-0.5-0.4-1-0.9-1.4-1.3c-1.2,0.9-2.1,1.8-3.2,2.5
		c-7.6,5.1-17.5,1.9-20.7-6.8c-0.8-2.1-1-4.4-0.9-6.6c0.4-5.4,2.8-9.7,7.8-12c5-2.3,9.8-1.7,14.3,1.5c0.8,0.5,1.5,1.2,2.4,1.8
		C386.3,348,386.8,347.5,387.4,347z M306.8,342.3c0,10.8,0,21.4,0,32.2c0.8-0.1,1.5-0.1,2.4-0.2c0-4.9,0-9.6,0-14.5
		c6.2,0,12.1,0,18.2,0c-0.1-0.9-0.2-1.5-0.2-2.3c-6,0-11.9,0-17.8,0c-0.5-2.8-0.4-11.3,0.1-13.1c6.5-0.1,13.1,0,19.9-0.1
		c-0.1-0.9-0.1-1.5-0.2-2.1C321.7,342.3,314.4,342.3,306.8,342.3z M221.1,374.5c0-10,0-19.9,0-30c3.8,0,7.4,0,11.1,0
		c0-0.8,0-1.4,0-2.1c-8.3,0-16.5,0-24.9,0c0.1,0.7,0.2,1.3,0.3,2.2c3.7,0,7.2,0,10.9,0c0.1,10.1,0.2,19.9,0.3,29.7
		c0,0,0.1,0.1,0.2,0.2C219.6,374.5,220.2,374.5,221.1,374.5z M13.8,374.5c0-10.1,0-19.9,0-30c3.8,0,7.3,0,10.9,0
		c0.1-0.5,0.2-0.8,0.2-1.1c0-0.3-0.1-0.6-0.1-1c-8.3,0-16.5,0-24.8,0c0.1,0.7,0.1,1.3,0.2,2.1c3.7,0,7.3,0,11.1,0
		c0,10.1,0,20,0,29.9C12.2,374.5,12.8,374.5,13.8,374.5z"/>
	<path d="M360.1,107.1c-0.1,59.3-47.9,107.1-107.2,107c-59.1,0-107-48.1-106.9-107.4C146,47.8,194-0.1,253.2,0
		C312.3,0.1,360.1,48,360.1,107.1z M352.9,106.9C352.8,51.7,308.2,7.2,253,7.2c-55.3,0-99.9,44.7-99.9,100
		c0,55.2,44.9,99.8,100.2,99.8C308.3,206.9,353,162.1,352.9,106.9z"/>
	<path d="M6.6,254.6c0,19.7,0,39.3,0,58.8c0.2,0.1,0.3,0.1,0.5,0.2c0.5-0.7,1-1.5,1.5-2.2c11.5-18.2,23-36.3,34.4-54.6
		c1.2-1.8,2.4-2.8,4.6-2.5c1,0.1,2,0,3.3,0c0,19.9,0,39.5,0,59.1c0.2,0.1,0.3,0.1,0.5,0.2c0.5-0.7,0.9-1.3,1.4-2
		c11.6-18.3,23.2-36.6,34.7-55c1.1-1.8,2.3-2.6,4.4-2.4c1.3,0.2,2.7,0,4.4,0c-0.4,0.8-0.6,1.4-0.9,1.9
		c-13.7,21.7-27.4,43.4-41.1,65.1c-0.8,1.2-1.6,1.8-3.1,1.7c-2-0.1-4,0-6.3,0c-0.2-6.3-0.1-12.5-0.1-18.7c0-6.2,0-12.3,0-18.5
		c0-6.2,0-12.5,0-18.7c-0.1-0.1-0.3-0.1-0.4-0.2c-0.5,0.7-0.9,1.3-1.4,2c-10.9,17.2-21.8,34.4-32.6,51.7c-1.1,1.8-2.3,2.6-4.4,2.4
		c-1.7-0.2-3.5,0-5.4,0c0-22.9,0-45.6,0-68.3C2.1,254.3,3.6,254.2,6.6,254.6z"/>
	<path d="M215.1,310.5c0-18.6,0-37.2,0-56c2.1,0,4,0,5.9,0c0.5,1.7,0.6,65.3,0.1,68.5c-1.8,0-3.7,0.1-5.6-0.1
		c-0.6,0-1.2-0.7-1.6-1.2c-1.7-2.8-3.4-5.6-5.1-8.4c-8.9-14.8-17.7-29.6-26.6-44.5c-0.4-0.7-0.8-1.3-1.2-2c-0.2,0-0.2,0-0.3,0
		c-0.1,0-0.1,0.1-0.2,0.1c0,0.2-0.1,0.3-0.1,0.5c0,0.3,0,0.6,0,1c0,17.8,0,35.7,0,53.5c0,0.2,0,0.3-0.1,0.5c0,0.1-0.1,0.1-0.2,0.4
		c-1.8,0-3.8,0-5.9,0c0-22.8,0-45.5,0-68.5c2,0,4,0,5.9,0c1.1,0,1.3,1,1.8,1.7c3.9,6.4,7.7,12.9,11.6,19.4c6.6,11,13.1,22,19.7,32.9
		c0.4,0.7,0.9,1.5,1.4,2.2C214.7,310.5,214.9,310.5,215.1,310.5z"/>
	<path d="M344,253.7c19.5,0,35,15.5,35.1,35c0.1,20-16.9,35-34.9,35.1c-18.8,0.1-35.2-16-35.3-35C308.9,270.5,324.2,253.5,344,253.7
		z M344.1,260.1c-15.2-0.4-28.8,12.8-28.7,28.6c0.1,15.9,12.7,28.7,28.6,28.7c16,0,28.8-12.8,28.8-28.7
		C372.8,272.4,358.9,259.6,344.1,260.1z"/>
	<path d="M399.3,322.8c0-22.9,0-45.6,0-68.4c0.6,0,1.1-0.1,1.5-0.1c5.4,0,10.9,0,16.3,0c16.9,0.1,29.5,13.6,32.4,26.3
		c3.8,16.9-5.3,34.3-21.5,40.3c-3.4,1.3-6.9,2-10.5,2c-5.7,0.1-11.4,0-17,0C400.1,323,399.8,322.9,399.3,322.8z M405.6,316.6
		c0.6,0.1,1.1,0.1,1.5,0.1c3.8,0,7.7,0,11.5-0.2c1.8-0.1,3.7-0.5,5.4-1c12.4-3.6,20.4-15,20-28.3c-0.4-12.6-10.1-24.1-22.5-26
		c-5.1-0.8-10.3-0.4-15.5-0.5c-0.1,0-0.3,0.2-0.4,0.3C405.6,279.5,405.6,298,405.6,316.6z"/>
	<path d="M505.7,322.9c-11.6,0-23.1,0-34.4,0c-0.5-1.8-0.6-65.1-0.2-68.4c11.5,0,22.9,0,34.6,0c0,1.9,0,3.9,0,6.1
		c-9.4,0-18.8,0-28.4,0c0,8.3,0,16.3,0,24.7c3.7,0.2,7.4,0.1,11.1,0.1c3.7,0,7.3,0,11.1,0c0.5,2.1,0.3,4.1,0.2,6.3
		c-7.5,0-14.9,0-22.4,0c0,8.4,0,16.5,0,24.9c9.4,0,18.8,0,28.4,0C505.7,318.8,505.7,320.8,505.7,322.9z"/>
	<path d="M292.1,312.7c0,2.2-0.1,3.8,0,5.3c0.1,1.4-0.4,2.2-1.7,2.7c-3.3,1.4-6.6,2.3-10.2,2.7c-17.9,2-34.4-10-38-27.6
		c-4.6-22.6,12-39.2,28-41.7c6.9-1.1,13.5-0.4,20,2.3c0.6,0.2,1.1,0.6,1.8,0.9c0,2.2,0,4.4,0,7c-8.7-5-17.6-5.9-26.8-2.2
		c-5.8,2.4-10.2,6.5-13.5,11.8c-6.2,10.2-5.1,23.8,2.7,32.9c3,3.5,6.5,6.3,10.8,8.1c4.4,1.9,8.9,2.5,13.6,2.1
		C283.5,316.9,287.7,315.4,292.1,312.7z"/>
	<path d="M106.6,254.4c2.4,0,4.3,0,6.2,0c1.3,0,1.6,0.9,2,1.7c4.3,7.3,8.6,14.6,12.9,21.9c0.9,1.6,1.9,3.1,3,5.1
		c0.6-0.9,1-1.6,1.5-2.3c4.8-8.1,9.6-16.2,14.3-24.4c0.8-1.4,1.7-2.1,3.4-2c1.5,0.2,3,0,5,0c-0.6,1-0.9,1.8-1.4,2.5
		c-6.1,10.4-12.2,20.8-18.4,31.2c-0.8,1.4-1.3,2.8-1.3,4.5c0.1,9.2,0,18.4,0,27.6c0,0.9,0,1.7,0,2.7c-2.1,0-4,0-6.2,0
		c0-0.8-0.1-1.7-0.1-2.5c0-9.3,0-18.5,0-27.8c0-1.7-0.4-3.1-1.3-4.5c-6.2-10.4-12.3-20.8-18.4-31.2
		C107.6,256.2,107.2,255.5,106.6,254.4z"/>
	<path d="M172.1,374.6c0-11,0-21.5,0-32.2c0.6-0.1,1.2-0.2,1.7-0.2c4.1,0,8.2-0.1,12.2,0.1c2,0.1,4.1,0.6,6,1.3
		c3.4,1.4,5.2,4.2,5.1,7.9c0,3.7-1.9,6.4-5.2,7.9c-1.2,0.6-2.5,0.9-4.1,1.5c3.4,4.5,6.7,8.8,10.2,13.3c-1.8,0.6-2.9,0.3-3.9-1.1
		c-2.5-3.4-5.2-6.7-7.7-10.1c-1.1-1.5-2.2-2-4-1.9c-2.5,0.1-5.1,0-7.9,0c-0.3,2.3-0.1,4.4-0.2,6.5c0,2.2,0,4.3,0,6.7
		C173.6,374.5,172.9,374.5,172.1,374.6z M174.5,359c4.1,0,8,0.1,11.8-0.1c1.6-0.1,3.3-0.7,4.8-1.3c1.6-0.7,2.7-2,3.2-3.7
		c1.5-4.3-1-8.6-5.8-9.1c-4.6-0.5-9.2-0.1-14-0.1C174.5,349.4,174.5,354.1,174.5,359z"/>
	<path d="M442.1,374.4c0-10.7,0-21.2,0-31.9c0.4-0.1,0.7-0.2,1.1-0.2c3.6,0,7.2-0.1,10.8,0c7.7,0.2,13.9,5.2,15.5,12.3
		c2.2,9.5-3.9,18.6-13.6,19.7C451.5,374.8,446.9,374.4,442.1,374.4z M444.5,372.3c0.7,0.1,1.4,0.2,2,0.1c3-0.1,6.1,0.1,9.1-0.3
		c7.4-1,12.1-6.8,11.8-14.2c-0.2-7.2-5.6-12.8-12.9-13.3c-2.9-0.2-5.8-0.1-8.6-0.1c-0.4,0-0.9,0.2-1.3,0.2
		C444.5,354,444.5,363.1,444.5,372.3z"/>
	<path d="M412.9,341.7c9.2,0,16.2,7.1,16.2,16.5c0,9.6-7.1,17-16.4,16.9c-9.2-0.1-16.2-7.3-16.2-16.7
		C396.5,349,403.6,341.7,412.9,341.7z M412.9,373c4.6,0,8.8-2.3,11.3-6.1c3.4-5.3,3.2-12.6-0.6-17.6c-5.4-7.2-16.3-7.2-21.7,0
		c-1.9,2.5-2.7,5.4-2.9,8.5C398.7,366.2,404.9,373,412.9,373z"/>
	<path d="M277.6,341.7c9.3,0,16.2,7,16.2,16.5c0,9.6-6.9,16.8-16.2,16.9c-9.2,0.1-16.4-7.2-16.4-16.7
		C261.3,349,268.4,341.7,277.6,341.7z M263.9,358.8c0,0.3,0,1.1,0.1,1.8c0.7,6.5,5.8,11.7,12.1,12.4c6.6,0.7,12.6-3.2,14.5-9.7
		c0.6-2,0.8-4.3,0.7-6.4c-0.7-9.4-9.8-15.3-18.4-12.2C267.3,346.7,263.8,352.1,263.9,358.8z"/>
	<path d="M76.8,342.4c7.6,0,15.1,0,22.8,0c0,0.6,0,1.2,0,2.1c-6.7,0-13.4,0-20.3,0c0,4.3,0,8.3,0,12.6c6,0,12,0,18.2,0
		c0,0.9,0,1.5,0,2.3c-6,0-12,0-17.9,0c-0.6,1.9-0.7,10-0.2,13c6.7,0,13.5,0,20.3,0c0,0.8,0,1.3,0,2.2c-7.5,0.1-15.1,0-22.6,0
		C76.6,372.7,76.4,349.1,76.8,342.4z"/>
	<path d="M505.7,342.4c0,0.6,0,1.1,0,2c-6.8,0.3-13.5,0-20.4,0.2c0,4.2,0,8.2,0,12.5c6.1,0,12.1,0,18.2,0c0,0.9,0,1.5,0,2.3
		c-6.1,0-12,0-17.9,0c-0.5,1.9-0.6,10-0.2,13c6.7,0,13.5,0,20.4,0c0.1,0.8,0.1,1.3,0.1,1.8c-1.8,0.5-20.2,0.7-23,0.1
		c0-10.6,0-21.1,0-31.9C490.5,342.4,498.1,342.4,505.7,342.4z"/>
	<path d="M37.1,342.3c0.8,0,1.4,0.1,2.2,0.1c0,4.9,0,9.7,0,14.7c6.9,0.2,13.7,0,20.7,0.1c0-5,0-9.9,0-14.8c0.9-0.1,1.5-0.1,2.3-0.1
		c0,10.8,0,21.4,0,32.2c-0.4,0.1-0.7,0.1-1,0.1c-0.3,0-0.6-0.1-1.2-0.2c0-4.9,0-9.7,0-14.8c-7-0.2-13.7-0.1-20.7-0.1
		c0,5,0,9.9,0,14.9c-0.9,0.1-1.5,0.1-2.3,0.2C37.1,363.8,37.1,353.2,37.1,342.3z"/>
	<path d="M160.2,374.3c-2.2,0.5-2.3,0.5-3-1.1c-0.9-2-1.9-4.1-2.8-6.1c-0.4-1-1.1-1.4-2.2-1.4c-5.4,0-10.7,0-16.1,0
		c-1.1,0-1.8,0.4-2.2,1.4c-0.9,2.1-1.8,4.1-2.7,6.1c-0.7,1.5-0.7,1.5-3.1,1.3c5-10.8,9.9-21.5,14.8-32.1c2.4-0.3,2.4-0.4,3.2,1.3
		c4.6,9.9,9.1,19.7,13.7,29.6C160,373.5,160.1,373.9,160.2,374.3z M144.4,344.9c-2.4,4.1-8,16.7-8.1,18.3c5.4,0,10.8,0,16.5,0
		C149.9,357.1,147.2,351.2,144.4,344.9z"/>
	<path d="M387.4,347c-0.6,0.6-1.1,1.1-1.6,1.5c-0.9-0.7-1.6-1.3-2.4-1.8c-4.5-3.1-9.3-3.8-14.3-1.5c-5,2.4-7.4,6.6-7.8,12
		c-0.2,2.3,0.1,4.5,0.9,6.6c3.2,8.6,13.1,11.9,20.7,6.8c1.1-0.7,2-1.6,3.2-2.5c0.5,0.4,0.9,0.8,1.4,1.3c-5.3,6.8-16.5,7.7-23.1,1.9
		c-7-6.1-7.5-17.6-1.2-24.6C369.4,340,381.1,340.1,387.4,347z"/>
	<path d="M306.8,342.3c7.6,0,14.9,0,22.4,0c0,0.6,0.1,1.2,0.2,2.1c-6.8,0.1-13.4,0-19.9,0.1c-0.5,1.9-0.6,10.4-0.1,13.1
		c5.8,0,11.7,0,17.8,0c0.1,0.8,0.1,1.4,0.2,2.3c-6.1,0-12,0-18.2,0c0,4.9,0,9.6,0,14.5c-0.9,0.1-1.5,0.1-2.4,0.2
		C306.8,363.8,306.8,353.2,306.8,342.3z"/>
	<path d="M221.1,374.5c-0.9,0-1.5,0-2,0c-0.1-0.1-0.2-0.1-0.2-0.2c-0.1-9.8-0.2-19.6-0.3-29.7c-3.6,0-7.2,0-10.9,0
		c-0.1-0.8-0.2-1.4-0.3-2.2c8.3,0,16.5,0,24.9,0c0,0.7,0,1.2,0,2.1c-3.7,0-7.2,0-11.1,0C221.1,354.6,221.1,364.5,221.1,374.5z"/>
	<path d="M13.8,374.5c-1,0-1.6,0-2.5,0c0-10,0-19.8,0-29.9c-3.9,0-7.4,0-11.1,0c-0.1-0.8-0.1-1.4-0.2-2.1c8.3,0,16.5,0,24.8,0
		c0.1,0.4,0.1,0.7,0.1,1c0,0.3-0.1,0.6-0.2,1.1c-3.6,0-7.1,0-10.9,0C13.8,354.6,13.8,364.4,13.8,374.5z"/>
	<path class="st0" d="M352.9,106.9c0.1,55.2-44.5,100-99.6,100c-55.3,0.1-100.1-44.6-100.2-99.8c0-55.3,44.6-100,99.9-100
		C308.2,7.2,352.8,51.7,352.9,106.9z M286,39.3c-2.1-1.4-4-2.6-6-4c-2.7,4-5.2,7.8-7.7,11.6c-2.5,3.8-5.1,7.6-7.6,11.4
		c-2.5,3.7-4.9,7.5-7.8,11.1c-0.3-6.9-0.2-13.7-0.3-20.4c0-6.8,0.1-13.7-0.1-20.5c-2.5,0-4.7,0-7.1,0c0,2.4,0,4.6,0,6.9
		c0,2.3,0,4.6,0,7c0,2.2,0,4.5,0,6.7c0,2.3,0,4.6,0,7c0,2.2,0,4.5,0,6.7c0,2.3,0,4.5-0.1,6.8c-0.2,0-0.4,0.1-0.5,0.1
		c-3.8-5.7-7.6-11.4-11.4-17.1c-3.8-5.7-7.5-11.4-11.5-17.1c-2.1,1.4-3.9,2.7-5.9,4c2,3.1,3.9,5.9,5.8,8.8c1.9,2.9,3.8,5.7,5.7,8.6
		c1.9,2.9,3.8,5.7,5.7,8.6c1.8,2.8,3.8,5.5,5.2,8.7c-12.6-5.2-25.2-10.4-38-15.7c-0.9,2.3-1.8,4.4-2.7,6.6
		c12.9,5.4,25.6,10.6,38.2,15.9c0,0.1-0.1,0.3-0.1,0.4c-13.4,2.7-26.9,5.4-40.5,8.1c0.5,2.4,0.9,4.6,1.4,7c6.9-1.4,13.6-2.7,20.4-4
		c6.7-1.3,13.3-2.8,20-3.9c0.1,0.2,0.1,0.3,0.2,0.5c-9.6,9.6-19.3,19.3-29.1,29.1c1.9,1.7,3.3,3.6,5.3,4.9
		c11.9-11.9,23.6-23.6,35.5-35.5c12,12,23.8,23.8,35.6,35.6c1.8-1.8,3.3-3.4,5-5.1c-1.6-1.7-3.3-3.3-4.9-4.9
		c-1.6-1.6-3.2-3.2-4.8-4.8c-1.6-1.6-3.3-3.3-4.9-4.9c-1.6-1.6-3.3-3.3-4.9-4.9c-1.6-1.6-3.2-3.2-4.8-4.8c-1.6-1.6-3.2-3.2-4.8-4.8
		c0.1-0.1,0.2-0.3,0.3-0.4c13.4,2.6,26.7,5.3,40.3,8c0.5-2.4,0.9-4.6,1.4-7c-13.6-2.8-27-5.3-40.4-8.1c0-0.2,0-0.3,0-0.5
		c12.7-5.3,25.3-10.5,38-15.8c-1-2.3-1.8-4.4-2.8-6.6C288.6,63.5,276,68.8,263.3,74c-0.1-0.1-0.2-0.2-0.3-0.4
		C270.7,62.2,278.3,50.8,286,39.3z M243.1,120.8c3.2-3.2,6.5-6.5,9.9-9.9c3.5,3.5,6.8,6.8,9.8,9.8c1.9-1.7,3.6-3.2,4.9-4.4
		c-5.1-5.1-10.1-10.1-14.9-14.9c-4.7,4.7-9.7,9.7-14.8,14.8C239.5,117.6,241.2,119.1,243.1,120.8z M319.1,85.3
		c3.4,3.4,6.7,6.7,10.2,10.2c-3.4,3.4-6.7,6.7-10,10c1.7,1.8,3.3,3.4,4.7,4.8c5.1-5.1,10.1-10.1,14.8-14.8
		c-4.8-4.8-9.8-9.8-14.7-14.7C322.5,82.1,320.9,83.6,319.1,85.3z M167.4,95.2c4.9,4.9,9.9,9.9,14.7,14.7c1.3-1.3,2.9-2.9,4.6-4.5
		c-3.2-3.2-6.5-6.5-9.9-9.9c3.5-3.5,6.8-6.8,9.9-9.9c-1.8-1.9-3.3-3.5-4.7-5C177,85.6,172,90.6,167.4,95.2z M252.9,120.1
		c-3.8,3.2-13.9,13.6-14.7,14.9c1.6,1.6,3.2,3.2,4.9,4.8c3.2-3.2,6.5-6.5,9.9-9.9c3.5,3.5,6.8,6.8,9.8,9.8c1.8-1.7,3.5-3.3,5-4.8
		C262.9,130.2,258,125.2,252.9,120.1z M238.1,154.6c1.5,1.5,3.1,3.1,5.1,5c3.4-3.6,6.6-7,9.8-10.5c3.5,3.5,6.8,6.8,10.2,10.1
		c1.8-1.8,3.3-3.3,4.8-4.8c-5.1-5-10.1-10-15-14.8C248.2,144.4,243.3,149.4,238.1,154.6z M243.3,168.1c0,6,0,11.8,0,17.7
		c2.4,0,4.5,0,6.7,0c0.5-2.9,0.4-16-0.2-17.7C247.8,168.1,245.6,168.1,243.3,168.1z M256.1,168.1c-0.5,2.6-0.4,15.9,0.1,17.6
		c2.2,0,4.4,0,6.7,0c0-6,0-11.7,0-17.6C260.4,168.1,258.2,168.1,256.1,168.1z"/>
	<path class="st0" d="M344.1,260.1c14.9-0.4,28.7,12.3,28.7,28.6c0,16-12.8,28.7-28.8,28.7c-15.9,0-28.5-12.8-28.6-28.7
		C315.3,272.8,328.9,259.6,344.1,260.1z"/>
	<path class="st0" d="M405.6,316.6c0-18.6,0-37.1,0-55.6c0.1-0.1,0.3-0.3,0.4-0.3c5.2,0.1,10.4-0.3,15.5,0.5
		c12.4,1.9,22.1,13.5,22.5,26c0.4,13.3-7.6,24.7-20,28.3c-1.8,0.5-3.6,0.9-5.4,1c-3.8,0.2-7.7,0.2-11.5,0.2
		C406.7,316.7,406.2,316.7,405.6,316.6z"/>
	<path class="st0" d="M174.5,359c0-4.9,0-9.6,0-14.3c4.8,0,9.4-0.4,14,0.1c4.9,0.5,7.3,4.8,5.8,9.1c-0.6,1.7-1.6,3-3.2,3.7
		c-1.5,0.6-3.2,1.3-4.8,1.3C182.5,359.2,178.7,359,174.5,359z"/>
	<path class="st0" d="M444.5,372.3c0-9.2,0-18.3,0-27.5c0.4-0.1,0.9-0.2,1.3-0.2c2.9,0,5.8-0.1,8.6,0.1c7.4,0.5,12.7,6.1,12.9,13.3
		c0.3,7.4-4.4,13.2-11.8,14.2c-3,0.4-6.1,0.3-9.1,0.3C445.9,372.5,445.3,372.4,444.5,372.3z"/>
	<path class="st0" d="M412.9,373c-8,0-14.2-6.8-13.8-15.2c0.2-3.1,1-6,2.9-8.5c5.3-7.2,16.3-7.2,21.7,0c3.8,5,4,12.3,0.6,17.6
		C421.7,370.8,417.5,373,412.9,373z"/>
	<path class="st0" d="M263.9,358.8c0-6.8,3.5-12.1,9-14.1c8.6-3.2,17.7,2.8,18.4,12.2c0.2,2.1-0.1,4.4-0.7,6.4
		c-1.9,6.5-7.9,10.4-14.5,9.7c-6.3-0.7-11.4-5.9-12.1-12.4C263.9,359.9,263.9,359.2,263.9,358.8z"/>
	<path class="st0" d="M144.4,344.9c2.8,6.2,5.5,12.2,8.3,18.3c-5.7,0-11.1,0-16.5,0C136.4,361.7,141.9,349,144.4,344.9z"/>
	<path d="M286,39.3c-7.7,11.6-15.3,23-22.9,34.3c0.1,0.1,0.2,0.2,0.3,0.4c12.7-5.2,25.3-10.5,38.2-15.8c0.9,2.2,1.8,4.3,2.8,6.6
		c-12.7,5.3-25.4,10.5-38,15.8c0,0.2,0,0.3,0,0.5c13.4,2.8,26.9,5.3,40.4,8.1c-0.5,2.4-0.9,4.6-1.4,7c-13.6-2.7-26.9-5.3-40.3-8
		c-0.1,0.1-0.2,0.3-0.3,0.4c1.6,1.6,3.2,3.2,4.8,4.8c1.6,1.6,3.2,3.2,4.8,4.8c1.6,1.6,3.3,3.3,4.9,4.9c1.6,1.6,3.3,3.3,4.9,4.9
		c1.6,1.6,3.2,3.2,4.8,4.8c1.6,1.6,3.3,3.3,4.9,4.9c-1.7,1.7-3.3,3.3-5,5.1C276.8,111,265,99.2,253,87.3
		c-11.9,11.9-23.6,23.6-35.5,35.5c-2-1.3-3.4-3.2-5.3-4.9c9.8-9.8,19.4-19.4,29.1-29.1c-0.1-0.2-0.1-0.3-0.2-0.5
		c-6.7,1.1-13.3,2.6-20,3.9c-6.7,1.3-13.4,2.6-20.4,4c-0.5-2.4-0.9-4.6-1.4-7c13.7-2.7,27.1-5.4,40.5-8.1c0-0.1,0.1-0.3,0.1-0.4
		c-12.6-5.2-25.3-10.5-38.2-15.9c0.9-2.3,1.8-4.4,2.7-6.6c12.8,5.3,25.4,10.5,38,15.7c-1.3-3.2-3.3-5.9-5.2-8.7
		c-1.9-2.9-3.8-5.7-5.7-8.6c-1.9-2.9-3.8-5.7-5.7-8.6c-1.9-2.9-3.8-5.7-5.8-8.8c1.9-1.3,3.8-2.6,5.9-4c4,5.7,7.7,11.4,11.5,17.1
		c3.8,5.7,7.6,11.4,11.4,17.1c0.2,0,0.4-0.1,0.5-0.1c0-2.3,0-4.5,0.1-6.8c0-2.2,0-4.5,0-6.7c0-2.3,0-4.6,0-7c0-2.2,0-4.5,0-6.7
		c0-2.3,0-4.6,0-7c0-2.2,0-4.5,0-6.9c2.4,0,4.6,0,7.1,0c0.1,6.8,0,13.7,0.1,20.5c0,6.8,0,13.6,0.3,20.4c2.8-3.6,5.3-7.3,7.8-11.1
		c2.5-3.8,5.1-7.6,7.6-11.4c2.5-3.8,5.1-7.6,7.7-11.6C282,36.7,283.9,37.9,286,39.3z"/>
	<path d="M243.1,120.8c-1.9-1.7-3.5-3.2-5.1-4.6c5.1-5.1,10-10,14.8-14.8c4.8,4.8,9.8,9.8,14.9,14.9c-1.3,1.2-3,2.7-4.9,4.4
		c-3-3-6.4-6.3-9.8-9.8C249.6,114.3,246.3,117.6,243.1,120.8z"/>
	<path d="M319.1,85.3c1.8-1.7,3.4-3.2,4.8-4.5c4.9,4.9,9.9,9.9,14.7,14.7c-4.7,4.7-9.7,9.7-14.8,14.8c-1.3-1.4-2.9-3-4.7-4.8
		c3.3-3.3,6.6-6.6,10-10C325.8,92,322.5,88.7,319.1,85.3z"/>
	<path d="M167.4,95.2c4.7-4.7,9.6-9.6,14.7-14.7c1.4,1.5,2.9,3.1,4.7,5c-3.1,3.1-6.4,6.4-9.9,9.9c3.4,3.4,6.7,6.7,9.9,9.9
		c-1.7,1.7-3.3,3.2-4.6,4.5C177.3,105.2,172.3,100.2,167.4,95.2z"/>
	<path d="M252.9,120.1c5.1,5.1,10,10,14.9,14.9c-1.5,1.5-3.2,3-5,4.8c-3-3-6.3-6.3-9.8-9.8c-3.4,3.4-6.7,6.7-9.9,9.9
		c-1.7-1.7-3.3-3.2-4.9-4.8C239,133.7,249.1,123.3,252.9,120.1z"/>
	<path d="M238.1,154.6c5.2-5.2,10.2-10.2,14.9-14.9c4.9,4.8,9.9,9.8,15,14.8c-1.5,1.5-3,3-4.8,4.8c-3.4-3.4-6.7-6.7-10.2-10.1
		c-3.3,3.5-6.4,6.8-9.8,10.5C241.2,157.6,239.5,156,238.1,154.6z"/>
	<path d="M243.3,168.1c2.3,0,4.4,0,6.5,0c0.6,1.7,0.7,14.8,0.2,17.7c-2.2,0-4.4,0-6.7,0C243.3,179.9,243.3,174.1,243.3,168.1z"/>
	<path d="M256.1,168.1c2.2,0,4.4,0,6.7,0c0,5.9,0,11.7,0,17.6c-2.2,0-4.4,0-6.7,0C255.7,184,255.6,170.7,256.1,168.1z"/>
</g>
</svg>
